<svg xmlns="http://www.w3.org/2000/svg" width="280" height="260" fill="none"><path fill="#B47BFF" fill-opacity=".37" d="M246.62 142.44c-.77 1.04-1.63 2.12-2.67 3.37l-.79.98c-1.12 1.39-2.28 2.83-3.64 4.26l-.38.47c-.48.69-1.18 1.67-2.2 2.59-1.84 1.75-4.2 2.7-6.67 2.7-.88 0-1.78-.12-2.66-.36-.45-.12-.87-.29-1.28-.48-.01 0-.02 0-.03-.02-.61-.24-1.22-.54-1.83-.9-1.8-1.08-3.03-2.36-3.95-3.35-.1-.09-.35-.3-.64-.54-.27-.14-.55-.26-.84-.35-3.06-.97-7.44 1.36-9.87 2.91-3.33 2.12-6.64 4.25-9.96 6.39-5.69 3.67-11.37 7.36-17.05 11.06l-1.75 1.14c-.7.45-1.39.91-2.07 1.36-.59.4-1.3.82-2.05 1.27-.04.03-.08.05-.12.08-.23.16-.45.32-.68.47-.48.32-.96.65-1.44.97-.03 0-.05.03-.07.05-1.56 1.18-2.84 2.62-2.93 4.46-.19 3.82 4.82 5.25 7.28 7.24 3.89 3.15 6.49 7.95 6.48 13.01-.02 4.95-2.16 9.88-6.37 14.64-.06.07-.13.14-.2.22-.67.78-1.37 1.52-2.1 2.23-.23.22-.46.45-.7.67a51.712 51.712 0 0 1-6.98 5.69c-.85.57-1.65 1.04-2.36 1.45-.29.17-.58.33-.87.51l-.68.41c-1.28.78-2.57 1.56-3.87 2.31-.8.46-1.61.91-2.42 1.34-.46.25-.94.51-1.43.78-.86.47-1.71.92-2.53 1.35-1.37.72-2.63 1.27-3.86 1.8l-.59.26c-.9.39-1.69.63-2.27.81-.11.03-.21.07-.32.1-.02.01-.05.02-.07.03-.87.37-2.1.79-3.69.79h-.19c-.69.11-1.34.16-1.9.17-.28.02-.53.02-.76.02-.56 0-1.14-.02-1.7-.04-.29-.01-.56-.02-.79-.02-6.49.26-12.35.39-17.9.39-1.33 0-2.66 0-3.99-.02-1.6-.02-3.18-.04-4.78-.07l-1.86-.03c-.28.01-.56.03-.84.04-.89.04-1.79.08-2.68.08h-.56c-1.63 0-2.98-.14-4.27-.45-7.28-1.76-8.09-7.31-8.44-9.68-.64-4.38-.14-8.78 1.3-12.79.12-.35.25-.69.39-1.03.12-.32.26-.64.4-.95.12-.29.25-.58.4-.86a26.256 26.256 0 0 1 1.94-3.36c.23-.34.47-.67.71-1 .03-.04.07-.08.1-.13.5-.67 1.04-1.31 1.61-1.92.31-.33.63-.66.96-.98-5.57-4.58-8.49-11.6-9.99-18.1-.09-.35-.16-.68-.23-1.01-.16-.75-.3-1.5-.43-2.23-.08-.45-.14-.9-.21-1.36-.03-.23-.08-.46-.11-.69-.06-.4-.1-.81-.14-1.21-.39-3.71-.31-7.37.24-10.89.25-1.61.6-3.16 1.04-4.64l.06-.33c.34-1.76.23-4.21-2.04-4.57-1.08-.17-2.12-.04-3.25-.48-2.14-.82-3.88-2.45-4.92-4.49-.54-1.06-1.07-2.15-1.61-3.24-2.53-5.1-4.96-10.37-8.67-14.75-1.81-2.13-3.94-4.04-6.48-5.26-2.95-1.41-6.42-.55-9.18-2.39-2.15-1.43-3.7-3.71-4.2-6.24-.84-4.28 1.41-8.43 5.48-10.09 5.03-2.05 8.17-5.23 9.34-9.46.94-3.42.87-7.47-.19-12.05-.62-2.67-.04-5.5 1.6-7.7 1.23-1.64 2.98-2.65 4.89-3.29 1.91-.64 4.08-.74 5.01-2.75 1.12-2.4.64-6.2-.82-8.36-.39-.58-1.77-1.54-2.89-2.31-1.02-.71-2.18-1.51-3.3-2.46a8.92 8.92 0 0 1-3.06-8.24 8.936 8.936 0 0 1 5.44-6.92c1.77-.75 3.52-1.21 5.06-1.61 1.36-.36 2.54-.66 3.37-1.08 5.22-2.64 4.22-10.04 9.06-13.02 2.68-1.65 7.23-2.61 10.33-2.07 1.67.29 3.24.98 4.57 2.03 3.9 3.07 2.59 9.75 6.72 11.41 4.47 1.79 7.66-2.48 11.59-2.94 3.91-.47 6.13 2.95 9.15-1.33 3.05-4.32 1.73-11.45 9.63-9.84 3.89.79 4.21 4.57 8.61 2.81 4.83-1.93 4.58-8.51 10.27-9.57 3.37-.63 4.31 1.41 7.01 2.59 4.18 1.83 3.81-.86 7.21-2.77 2.89-1.62 7.61-2 10.41.03 2.75 2 2.83 6.34 2.98 9.34.2 3.86 3.61 5.21 7.17 5.25 3.78.05 8.3.86 8.97 5.36.4 2.7-2.55 7.63 1.41 8.64 1.18.3 2.7-.15 3.97-.09 4.37.22 7.87 5.32 7.48 9.41-.19 2-1.88 4.46-1.02 6.43.98 2.24 4.47 2.78 6.38 3.91 3.6 2.14 6.18 4.55 7.35 8.65.88 3.07.78 4.72-.85 7.24-2.2 3.4-4.1 6.49-2.07 9.24 2.3.66 4.44 1.99 6.23 3.88 1.1 1.15 2.01 2.44 2.69 3.81 1.07 1.66 1.68 3.73 1.68 6.61 0 1-.09 1.92-.24 2.76 3.15 3.3 4.68 7.16 4.51 11.09 3.02 1.75 5.55 3.94 6.98 6.41h.04c1.97 3.4 1.82 7.33-2.08 11.38l.02.01Z"/><path fill="#000" d="M93.91 41.05c-1.26 7.84-2.99 17.67 8.19 21.57-11.84.21-14.82 10.34-16.08 18.19 1.26-7.84.84-20.04-10.34-23.94 11.84-.21 16.97-7.97 18.23-15.82Z"/><path fill="#000" d="M104.17 61.26c-4.3.9-8.78 2.04-12.11 5.08-3.77 3.43-5.59 8.45-7.08 13.19l2.44.39c-.12-5.47.09-12.3-3-17.1-1.96-3.04-5.48-4.74-8.19-7.02l-.35 2.19c3.24-1.36 6.73-1.65 9.86-3.4 5.14-2.9 7.97-8.21 9.67-13.67l-2.42-.73c-.37 5.51-1.01 12.23 1.82 17.26 1.92 3.41 5.51 4.9 8.98 6.25 1.53.59 2.59-1.74 1.06-2.33-2.92-1.12-6.19-2.28-7.83-5.17-2.53-4.46-1.83-10.76-1.51-15.62.09-1.31-1.96-2.21-2.42-.73-1.6 5.14-4.16 10.28-9.16 12.83-2.85 1.44-6.05 1.7-8.95 2.93-.89.38-1.09 1.55-.35 2.19 2.45 2.06 5.78 3.63 7.61 6.34 2.94 4.37 2.56 11.12 2.66 16.1.03 1.21 2.06 1.59 2.44.39 1.34-4.27 2.89-9 6.24-12.17 2.95-2.79 7.06-3.82 10.91-4.63 1.59-.33 1.32-2.87-.28-2.55h-.05l.01-.02ZM163.45 89.54c1.93 0 1.93-3 0-3s-1.93 3 0 3Z"/><path fill="#B47BFF" d="M176.49 87.59c3.84-.64 5.96-.44 8.94-.74 3.76-.38 4.74-.68 8.52-.92 5.96-.37 11.92-.34 17.88-.86 2.67-.23 5.26-.45 7.94-.41"/><path fill="#000" d="M176.69 88.31c3.2-.51 6.44-.46 9.66-.82 3.22-.36 6.2-.76 9.33-.91 4.06-.21 8.12-.27 12.17-.49 4.05-.22 7.93-.72 11.91-.68.97 0 .97-1.49 0-1.5-3.98-.04-7.94.47-11.91.68-4.22.23-8.45.28-12.67.51-3.2.17-6.34.63-9.52.96-3.18.33-6.26.3-9.37.8-.95.15-.55 1.6.4 1.45Z"/><path fill="#B47BFF" d="M163.86 78.37c-.46-6.34-1.44-12.54-1.47-18.95-.03-6.83-.3-13.59-.68-20.41"/><path fill="#000" d="M164.61 78.37c-.49-6.57-1.43-13.08-1.47-19.68-.05-6.56-.32-13.12-.67-19.68-.05-.96-1.55-.97-1.5 0 .35 6.55.62 13.11.67 19.68.05 6.6.99 13.11 1.47 19.68.07.96 1.57.96 1.5 0Z"/><path fill="#B47BFF" d="M164.58 98.18c.71 7.8 1.12 15.57 1.13 23.4 0 2.99-.17 5.98.28 8.94.22 1.47.27 2.79.28 4.27"/><path fill="#000" d="M163.83 98.18c.56 6.16.93 12.33 1.07 18.51.07 2.97.02 5.93.03 8.9 0 2.97.55 6.11.59 9.19 0 .96 1.51.97 1.5 0-.04-3-.57-5.95-.59-8.96-.02-3.04.04-6.09-.03-9.13-.14-6.18-.51-12.36-1.07-18.51-.09-.95-1.59-.96-1.5 0Z"/><path fill="#B47BFF" d="M152.13 90.89c-1.07.1-2.21-.03-3.28-.03-2.83-.01-5.73.26-8.51-.28-2.59-.5-5.31-.28-7.96-.28h-12.65c-1.68.01-3.05-.37-4.72-.56"/><path fill="#000" d="M152.13 90.14c-1.56.1-3.14-.04-4.7-.02s-3.17.09-4.75 0c-1.49-.09-2.94-.44-4.42-.55-1.57-.11-3.14-.05-4.71-.03-3.18.05-6.36.01-9.54.01-1.57 0-3.16.05-4.73 0-1.43-.05-2.85-.37-4.26-.56-.95-.12-.95 1.38 0 1.5 1.42.18 2.83.5 4.26.56 1.57.06 3.16 0 4.73 0 3.18 0 6.36.04 9.54-.01 1.49-.02 2.98-.08 4.47.01 1.56.1 3.09.47 4.65.56 1.56.09 3.17.03 4.75 0s3.14.12 4.7.02c.96-.06.97-1.56 0-1.5h.01v.01Z"/><path fill="#B47BFF" d="M171.86 79.03c1.28-1.8 2.02-3.52 2.88-4.81 2.86-4.3 4.91-8.17 8.05-12.28 2.01-2.63 3.46-4.45 6.55-9.39.96-1.54 2.41-2.75 3.45-5.15"/><path fill="#000" d="M172.5 79.41c.97-1.4 1.71-2.93 2.61-4.38.94-1.53 1.95-3.02 2.89-4.55 1.87-3.02 3.77-6 5.93-8.82 1.45-1.89 2.85-3.8 4.15-5.78.9-1.37 1.71-2.81 2.72-4.11 1.01-1.3 1.94-2.51 2.62-3.99.4-.87-.89-1.63-1.3-.76-.69 1.5-1.65 2.73-2.65 4.02-.95 1.24-1.73 2.61-2.58 3.91-1.34 2.04-2.78 4.01-4.26 5.95-2.12 2.76-3.98 5.67-5.81 8.63-.96 1.54-1.96 3.05-2.92 4.59s-1.69 3.08-2.7 4.53c-.55.8.75 1.55 1.3.76Z"/><path fill="#B47BFF" d="M156.26 82.47c-1.1-1.08-1.22-1.07-2.22-2.25-3.91-4.57-7.95-8.98-12.03-13.4-2.97-3.22-5.77-6.59-8.76-9.8-1.12-1.19-2.53-2.1-3.59-3.33"/><path fill="#000" d="M156.79 81.94c-2.16-2.1-4.06-4.4-6.06-6.65-2.32-2.61-4.67-5.18-7.03-7.75-2.29-2.49-4.53-5.03-6.77-7.57-1.12-1.27-2.23-2.58-3.43-3.77-1.06-1.06-2.29-1.92-3.3-3.04-.65-.72-1.71.35-1.06 1.06 1.01 1.11 2.24 1.98 3.3 3.04 1.21 1.19 2.31 2.5 3.43 3.77 2.24 2.54 4.48 5.08 6.77 7.57 2.29 2.49 4.71 5.14 7.03 7.75 2 2.25 3.91 4.55 6.06 6.65.69.67 1.75-.39 1.06-1.06Z"/><path fill="#B47BFF" d="M156.26 98.54c-3.21 5.1-7.91 13.37-10.88 19.05-1.26 2.41-2.57 4.8-3.83 7.2-.42.8-1.12 1.75-1.19 2.67"/><path fill="#000" d="M155.61 98.16c-2.85 4.54-5.51 9.19-8.1 13.88-1.29 2.34-2.54 4.71-3.8 7.08-.79 1.48-1.59 2.96-2.37 4.45-.62 1.18-1.5 2.36-1.71 3.7-.15.94 1.3 1.35 1.45.4.21-1.33 1.16-2.59 1.78-3.77.79-1.48 1.58-2.96 2.37-4.45 1.24-2.34 2.48-4.68 3.76-7 2.53-4.57 5.13-9.11 7.9-13.53.51-.82-.78-1.57-1.3-.76h.02Z"/><path fill="#B47BFF" d="M122.76 113.22c1.33-1.34 2.69-2.41 4.26-3.46.98-.66 1.73-1.41 2.66-2.13.61-.47 1.32-.69 1.96-1.13 1.23-.84 2.29-2 3.5-2.82.69-.46 1.58-.66 2.2-1.24"/><path fill="#000" d="M123.29 113.75a25.56 25.56 0 0 1 3.48-2.91c.62-.44 1.25-.86 1.83-1.34.65-.53 1.25-1.14 1.98-1.56.66-.38 1.32-.69 1.93-1.15.61-.46 1.13-.93 1.69-1.42.56-.49 1.13-.98 1.8-1.32.67-.34 1.29-.59 1.86-1.07.74-.62-.33-1.68-1.06-1.06-.54.46-1.25.64-1.86 1-.61.36-1.17.85-1.71 1.31-.59.5-1.15 1.04-1.78 1.49-.63.45-1.41.74-2.06 1.2-.65.46-1.18.96-1.76 1.44-.62.51-1.29.94-1.94 1.41a26.9 26.9 0 0 0-3.47 2.93c-.68.68.38 1.74 1.06 1.06l.01-.01Z"/><path fill="#B47BFF" d="M119.28 66.97c1.76.88 3.35 1.97 5.09 2.87 1.24.64 2.47 1.18 3.58 2.03.74.57 1.52 1.05 2.28 1.58.39.28.88.38 1.25.66s.58.78 1.1.76"/><path fill="#000" d="M118.9 67.62c1.27.64 2.48 1.39 3.71 2.11s2.52 1.29 3.75 2 2.31 1.64 3.5 2.39c.49.31 1.02.44 1.43.87.38.39.75.62 1.3.66.96.08.96-1.42 0-1.5-.21-.02-.68-.64-.88-.77-.53-.32-1.09-.56-1.61-.91-1.13-.76-2.2-1.62-3.4-2.27-1.2-.65-2.31-1.17-3.44-1.82-1.19-.7-2.37-1.42-3.6-2.05-.86-.43-1.62.86-.76 1.3v-.01Z"/><path fill="#B47BFF" d="M149.05 54.3c.02-.81-.77-1.32-1.17-1.94-.74-1.11-2.63-7.25-4.53-9.47"/><path fill="#000" d="M149.8 54.3c-.05-1.21-1.07-1.81-1.55-2.82-.41-.87-.74-1.79-1.1-2.68-.88-2.2-1.74-4.6-3.28-6.43-.62-.74-1.68.33-1.06 1.06.62.73 1.1 1.7 1.53 2.6.52 1.08.97 2.19 1.42 3.3.36.91.71 1.82 1.11 2.71.12.26.24.53.4.76.31.45 1 .92 1.03 1.5.04.96 1.54.97 1.5 0Z"/><path fill="#B47BFF" d="M175.66 46.7c-.1-.78.11-1.46.3-2.21.38-1.51.57-3.06 1.04-4.54.42-1.33.89-2.64 1.22-4 .15-.61.16-1.44.61-1.91"/><path fill="#000" d="M176.41 46.7c-.1-1.07.31-2.11.53-3.15.23-1.1.42-2.22.75-3.3.32-1.04.68-2.06.98-3.1.14-.47.26-.94.35-1.42.07-.37.09-.87.34-1.18.6-.74-.45-1.81-1.06-1.06-.64.79-.67 1.75-.92 2.7-.31 1.16-.71 2.29-1.07 3.44-.36 1.15-.57 2.34-.82 3.52-.25 1.18-.69 2.34-.58 3.55.09.95 1.59.96 1.5 0Z"/><path fill="#B47BFF" d="M193.73 72.1c.41-.49.95-.86 1.48-1.21 1.7-1.15 3.51-2.14 5.28-3.18 1.05-.62 2.1-1.26 3.2-1.78.56-.27 1.29-.4 1.77-.79"/><path fill="#000" d="M194.26 72.63c.72-.81 1.71-1.37 2.62-1.93 1.03-.64 2.08-1.24 3.13-1.85 1.05-.61 1.98-1.19 3-1.74.47-.26.94-.51 1.45-.69.51-.18.96-.34 1.38-.64.77-.57.02-1.87-.76-1.3-.41.3-.88.43-1.35.62-.51.2-.99.46-1.47.72-1.08.59-2.13 1.24-3.19 1.85-1.06.61-2.1 1.21-3.13 1.85-.95.6-1.98 1.2-2.73 2.05-.64.72.42 1.79 1.06 1.06h-.01Z"/><path fill="#B47BFF" d="M174.08 96.43c1.72 1.76 3.77 3.19 5.7 4.68 1.64 1.26 3.3 2.31 5.05 3.4 2.05 1.27 3.86 3.1 5.76 4.58 1.06.83 2.07 1.72 3.14 2.55.81.63 7.87 6.81 8.54 7.6"/><path fill="#000" d="M173.55 96.96c2.84 2.85 6.31 5.3 9.7 7.45 3.56 2.25 6.71 5.12 9.97 7.78 1.47 1.2 2.88 2.47 4.3 3.72s2.97 2.45 4.22 3.86c.64.72 1.7-.34 1.06-1.06-1.22-1.38-2.74-2.55-4.12-3.77-1.45-1.28-2.9-2.59-4.4-3.81-3.03-2.47-5.96-5.3-9.28-7.39-3.64-2.29-7.35-4.78-10.4-7.84-.68-.68-1.74.38-1.06 1.06h.01Z"/><path fill="#fff" stroke="#000" stroke-width="1.5" d="m73.92 87.58-.044.02c-.366.177-.586.508-.475.99 1.218 5.247 1.566 10.89.102 16.199l.418-17.21Zm0 0 .042-.028m-.041.027.041-.027m0 0c.23-.151.456-.194.613-.169.124.02.268.088.387.332l.02.044.028.041c.05.077.097.18.13.318v.002l.004.017.013.055.021.054c.215.536.433 1.086.656 1.648l.008.02c1.297 3.274 2.747 6.93 4.598 10.283 1.854 3.358 4.141 6.466 7.145 8.603L73.962 87.552Zm28.248 26.698c1.87-.41 1.45-3.16-.37-3.25-.696-.038-1.403-.063-2.116-.088-4.067-.146-8.309-.297-11.704-2.722l-.435.611c3.58 2.556 8.017 2.714 12.01 2.856l.102.004c.714.026 1.415.051 2.103.087l.003.001c.472.023.8.382.862.853a.902.902 0 0 1-.106.586c-.085.137-.233.268-.509.329m.16.733-.16-.733m.16.733-.16-.733m.16.733c-16.22 3.55-13.78 22.58-11.62 35.05m11.46-35.783c-4.207.921-7.25 2.859-9.383 5.48-2.125 2.608-3.31 5.844-3.899 9.307-1.171 6.903.005 14.897 1.083 21.124m0 0v-.001l.74-.127m-.74.128c.08.466-.203.91-.64 1.106a.805.805 0 0 1-.55.059c-.133-.04-.295-.141-.43-.41l-.001-.002c-.53-1.049-1.056-2.111-1.584-3.18l-.046-.091c-4.642-9.389-9.575-19.365-20.2-24.554m23.451 27.072.74-.128m0 0c.3 1.74-2.15 2.97-3.03 1.22-.533-1.053-1.06-2.118-1.588-3.186-4.674-9.454-9.508-19.228-19.903-24.304-1.9-.93-4.02-.87-6.13-.79-1.48.06-2.8-2.37-1.01-3.1l7.47 3.216m0 0c-2.096-1.026-4.408-.945-6.488-.866h-.002c-.332.014-.798-.293-1.01-.795-.096-.228-.098-.41-.06-.527.029-.092.105-.225.373-.334m7.187 2.522 7.103-17.567c-2.026 7.358-7.462 12.271-14.29 15.045m7.187 2.522-.33.673.33-.673Zm-7.187-2.522-.283-.694.282.694h.001Z"/><path fill="#000" d="M186.51 105.7c1.94.1 16.08 1.88 16.9 2.42.31.29 20.54 15.08 24.05 17.37 3.34 2.18 3.66 2.89 7.04 5.01 1.43.9 2.82 1.52 3.89 2.83.16.2.79.83.99.99.66.51 1.23.32 1.48 1.24.19.68-.61 1.08-1.05 1.6-.71.83-1.26 1.78-1.96 2.62-1.63 1.96-3.13 4.01-4.92 5.81-.85.86-1.76 3.08-2.96 2.51-1.3-.63-3.01-2-4.17-3.01-2.22-1.95-10.52-8.35-13.57-10.46-2.12-1.47-4.15-3.08-6.2-4.64-1.58-1.19-2.87-2.6-4.41-3.82l-8.32-6.59-6.8-13.89h.01v.01Z"/><path fill="#000" d="M186.51 106.45c4.19.24 8.4.94 12.55 1.57.94.14 1.88.29 2.81.47.3.06.6.15.9.19.22.03.41.13.14-.02.81.45 1.57 1.18 2.32 1.73 7 5.15 13.98 10.38 21.17 15.28 2.1 1.43 4.08 3.01 6.17 4.45 1.64 1.13 3.65 1.97 5.02 3.43.4.42.75.88 1.2 1.25.23.19.54.3.76.48.51.44.4.68-.05 1.13-1.34 1.36-2.39 3.09-3.59 4.58-1.24 1.55-2.66 2.97-3.88 4.52-.39.5-.7 1.1-1.15 1.55-.69.69-1.52-.16-2.18-.63-1.16-.82-2.21-1.78-3.31-2.68-4.1-3.38-8.34-6.67-12.69-9.72-4.9-3.44-9.33-7.43-14.01-11.14-1.5-1.19-2.96-2.48-4.52-3.58-.05-.03-.39-.34-.26-.18.13.16-.06-.16-.09-.21-.24-.57-.55-1.12-.82-1.67-1.81-3.69-3.61-7.38-5.42-11.07l-.42-.85c-.42-.87-1.72-.11-1.3.76 1.61 3.29 3.22 6.59 4.84 9.88.62 1.26 1.12 2.81 1.94 3.96.72 1.02 2.17 1.8 3.14 2.57 4.36 3.45 8.53 7.14 12.95 10.5 5.02 3.81 10.17 7.42 15.07 11.4.92.75 1.8 1.54 2.73 2.28.99.79 2.6 2.39 3.98 2.26 1.38-.13 1.96-1.59 2.69-2.5 1.35-1.67 2.84-3.23 4.19-4.91 1.24-1.54 2.42-3.1 3.72-4.58.93-1.07.47-2.28-.68-2.92-1.38-.76-2.28-2.16-3.63-3.03-1.61-1.03-3.24-1.97-4.77-3.12-3.49-2.65-7.14-5.08-10.7-7.63-4.23-3.04-8.44-6.1-12.64-9.18-1.36-1-2.72-1.99-4.07-2.99-.17-.13-.35-.26-.52-.39-.17-.13-.19-.13-.13-.1-.44-.28-.88-.38-1.39-.49-4.61-.96-9.38-1.45-14.06-1.97-.66-.07-1.33-.15-1.99-.19-.96-.06-.96 1.44 0 1.5h-.02v.01Z"/><path fill="#fff" d="M224.89 144.13c1.63 1.28 2.83 3.53 4.94 4.11 1 .27 1.33-.4 2.08-1.36 3.02-3.82 6.51-7.38 9.2-11.45-1.87-1.72-3.57-3.11-5.44-4.19-1.6-.93-2.66 2.57-3.78 3.79-1.26 1.37-2.54 2.72-3.67 4.2-.63.82-1.23 1.66-1.77 2.54-.17.27-.4.5-.57.77-.16.24-.63.74-.86.94"/><path fill="#000" d="M224.36 144.66c1.43 1.16 2.44 2.81 4.04 3.77.69.41 1.59.79 2.39.53s1.33-1.15 1.84-1.79c3.02-3.81 6.43-7.31 9.13-11.37.18-.27.12-.69-.12-.91-1.7-1.56-3.6-3.4-5.73-4.38-1.55-.72-2.64.87-3.32 2.02-.39.66-.73 1.37-1.22 1.96-.83.99-1.76 1.9-2.59 2.88-.83.98-1.58 1.95-2.29 2.98-.62.91-1.17 1.84-1.99 2.59-.71.65.35 1.71 1.06 1.06 1.46-1.33 2.36-3.2 3.59-4.73 1.23-1.53 2.88-2.92 3.95-4.61.39-.61.71-1.27 1.11-1.87.23-.35.58-.98 1.05-.92.37.04.94.56 1.25.77.45.3.9.62 1.33.96.96.74 1.87 1.55 2.76 2.37l-.12-.91c-2.35 3.53-5.24 6.63-7.93 9.88-.6.72-1.15 1.49-1.76 2.21-.56.65-1.17.31-1.81-.12-1.37-.91-2.27-2.38-3.55-3.41-.74-.6-1.81.45-1.06 1.06v-.02h-.01Z"/><path fill="#fff" d="M117.67 150.98c.3-1.26.83-2.51 2.17-2.84 1.34-.33 2.47.48 2.34 1.94l-.19 2.05-4.84.48.52-1.62v-.01Z"/><path fill="#000" d="M118.39 151.18c.04-.18.09-.37.15-.55l.09-.27c.02-.04.03-.09.05-.13 0-.02.08-.19.04-.1s.02-.05.03-.07c.01-.03.03-.06.04-.09.04-.08.08-.16.13-.24.05-.08.1-.15.15-.22.02-.03.08-.12 0 0 .03-.04.07-.08.11-.12.06-.06.12-.12.19-.18.02-.01.12-.1.05-.05-.07.05.04-.03.06-.04.08-.05.15-.09.23-.14.03-.02.06-.03.09-.04-.14.06.08-.02.09-.02.09-.03.18-.05.28-.07.03 0 .15-.02 0 0 .04 0 .09 0 .13-.01h.34c-.13-.03.09 0 0 0l.22.06c.13.03 0 0-.02 0 .03.02.07.03.1.05.06.03.12.07.18.12-.14-.1.02.03.07.08.13.12-.03-.07.04.04.04.06.08.13.11.19.06.12 0 0 0-.02 0 .04.03.07.04.11l.03.12c0 .02.03.19.02.09-.01-.1 0 .04 0 .06v.38c0 .04 0 .08-.01.12l-.06.61-.12 1.32.75-.75-4.23.42-.61.06.72.95c.17-.54.35-1.08.52-1.62.12-.37-.14-.84-.52-.92a.765.765 0 0 0-.92.52c-.17.54-.35 1.08-.52 1.62-.14.43.24 1 .72.95l4.23-.42.61-.06c.43-.04.71-.31.75-.75l.12-1.32c.05-.56.13-1.1 0-1.65-.2-.86-.87-1.55-1.72-1.76-.96-.24-2 .04-2.75.67-.81.67-1.2 1.73-1.44 2.72-.09.38.12.83.52.92.4.09.82-.12.92-.52v-.05Z"/><path fill="#000" d="M120.07 149.62c.97 0 .97-1.5 0-1.5s-.97 1.5 0 1.5Z"/><path fill="#fff" d="M143.92 149.81c-.29-2.75-3.7-2.64-4.81-.6l-.94 1.8 6.43.79-.68-1.99Z"/><path fill="#000" d="M144.67 149.81c-.1-.83-.39-1.63-1.06-2.18a3.05 3.05 0 0 0-2.12-.67c-.77.05-1.53.34-2.15.83-.46.36-.77.83-1.04 1.34-.27.51-.52 1-.78 1.5-.29.55.08 1.06.65 1.13l5.63.69.8.1c.47.06.87-.53.72-.95-.23-.66-.45-1.33-.68-1.99-.13-.38-.52-.64-.92-.52-.37.1-.65.54-.52.92.23.66.45 1.33.68 1.99l.72-.95-5.63-.69-.8-.1.65 1.13c.19-.37.38-.73.57-1.1.1-.2.21-.4.31-.6.02-.03.04-.07.05-.1.03-.06.07-.12.1-.17.02-.04.17-.22.08-.11.09-.11.19-.21.29-.3.03-.03.2-.15.07-.06.06-.04.12-.09.19-.12.12-.07.24-.14.36-.19-.15.07.05-.01.08-.03.08-.03.16-.05.24-.07.06-.01.12-.03.18-.04.19-.04-.06 0 .07 0h.51c.11 0-.13-.03-.02 0 .06 0 .12.02.17.04l.2.06c.01 0 .11.04.02 0-.1-.04.06.03.07.03.06.03.12.07.18.1.14.08-.04-.05.08.06l.17.17c.11.11 0-.03.05.07.04.07.09.14.13.22.02.03.03.06.04.09.05.11-.05-.16 0 .04.03.08.05.16.07.24l.03.15c0 .02.03.18 0 .07.05.4.31.75.75.75.37 0 .8-.35.75-.75l.04-.03h.02Z"/><path fill="#B47BFF" d="M173.6 166.58c-3.82 2.55-7.47 5.1-11.53 7.38-3.2 1.8-6.39 4.26-10.15 2.16-5.44-3.04-6.79-13.35-2.51-17.78 1.76-1.83 18.93-20.37 22.55-25.2 2.41-3.22 5.01-6.3 7.79-9.2 2.39-2.5 4.24-5.72 6.98-7.87 1.14-.89 2.43-1.64 3.52-2.46.62 2.39 2.28 4.61 2.74 7.02 2.05-.41 3.67-.21 5.65-1.17 3.3-1.6 11.06-10.94 3.49-12.43 1.35-3.52 4.73-6.32 5.66-7.01 2.29-1.7 6.05-2.83 8.72-.9 3.18 2.29 1.71 8 .89 11.09.86-2.22 3.2-5.86 5.93-5.77 3.05.1 5.58 3.55 5.57 6.37 0 3.36-1.82 3.68-4.33 5.1 2.3.03 4.26 1.47 5.96 3.06 9.41 8.78-8.94 17.18-14.82 20.64-7.8 4.59-34.45 21.98-39.97 25.57-.72.47-1.44.94-2.14 1.41v-.01Z"/><path fill="#000" d="M173.22 165.93c-4.15 2.77-8.29 5.48-12.59 7.99-1.88 1.1-3.99 2.47-6.28 2.22-1.89-.21-3.49-1.49-4.54-3-1.85-2.66-2.52-6.21-2.05-9.39.34-2.32 1.39-4.04 2.95-5.71 7.08-7.54 14.25-15.11 20.79-23.13 2.79-3.42 5.42-6.91 8.46-10.12 1.65-1.74 3.04-3.68 4.58-5.51 1.77-2.09 3.91-3.43 6.08-5.04l-1.1-.45c.69 2.43 2.2 4.54 2.74 7.02.09.42.54.59.92.52 2.58-.47 5.04-.47 7.19-2.15 1.59-1.24 2.98-2.81 4.07-4.51.94-1.47 1.84-3.3 1.59-5.09-.28-1.94-1.94-2.91-3.71-3.29l.52.92c1.59-3.94 6.02-8.54 10.6-8.36 5.91.23 4.2 7.46 3.23 11.14-.25.96 1.09 1.27 1.45.4.67-1.67 1.73-3.39 3.19-4.48 1.84-1.36 3.93-.54 5.31 1.07 1.23 1.44 2.01 3.64 1.29 5.49-.58 1.48-2.43 2.06-3.71 2.77-.68.38-.34 1.36.38 1.4 2.33.11 4.3 1.65 5.87 3.27.93.96 1.73 2.13 1.93 3.47.38 2.48-1.33 4.72-2.98 6.36-3.89 3.88-8.97 6.27-13.68 8.98-9.81 5.65-19.21 12.07-28.7 18.22-4.6 2.98-9.22 5.94-13.79 8.98-.8.53-.05 1.83.76 1.3 9.93-6.61 19.99-13.04 30.05-19.45 4.29-2.74 8.57-5.57 13.01-8.07 5.02-2.82 10.67-5.52 14.44-10.01 1.74-2.07 3.01-4.71 2.16-7.44-.49-1.57-1.54-2.87-2.73-3.97-1.8-1.66-3.84-3.02-6.34-3.14.13.47.25.93.38 1.4 1.79-1 3.86-1.76 4.48-3.92.7-2.46-.27-5.14-1.98-6.94-1.71-1.8-4.13-2.62-6.32-1.42-2.19 1.2-3.57 3.55-4.45 5.74l1.45.4c1.18-4.5 2.58-12.11-3.96-12.98-5.58-.74-10.84 4.66-12.76 9.4-.15.36.16.84.52.92 1.48.32 2.79 1.04 2.64 2.74-.13 1.58-1.1 3.08-2.02 4.32-.92 1.24-2.05 2.48-3.33 3.4-1.9 1.38-4.23 1.29-6.44 1.69l.92.52c-.54-2.48-2.05-4.59-2.74-7.02-.12-.42-.7-.74-1.1-.45-1.86 1.38-3.83 2.52-5.44 4.22-1.63 1.73-2.96 3.71-4.53 5.49-1.7 1.94-3.5 3.77-5.16 5.76-1.31 1.57-2.53 3.21-3.8 4.82-3.5 4.44-7.4 8.58-11.19 12.77-3.44 3.79-6.89 7.58-10.4 11.3-4.06 4.3-4.18 11.31-1.07 16.24.99 1.57 2.36 2.89 4.09 3.61 2.19.91 4.44.44 6.5-.55 5.32-2.55 10.21-6.12 15.11-9.38.8-.53.05-1.83-.76-1.3v.01Z"/><path fill="#B47BFF" d="M143.51 192.76c.36 5.96.03 26.69.12 32.69.03 2.02.53 2.09-1.29 2.68-1.11.36-3.31.07-4.53.12-7.13.29-14.38.44-21.47.36-2.33-.03-4.62-.07-6.96-.1-1.88-.03-4.31.34-6.14-.1-1.71-.41-1.74-.7-2.03-2.69-1.09-7.49 2.87-16.11 10.59-19.02 1.42-.53 2.71-.8 4.21-1.01.92-.13 1.64.23 2.31-.24 1.05-.73 1.37-3.72 1.57-4.88.57-3.24-.47-6.79.38-9.95"/><path fill="#000" d="M142.76 192.76c.37 6.33.18 12.71.15 19.04-.02 3.33-.04 6.66-.04 9.99 0 1.17 0 2.34.02 3.51 0 .41.27 1.45.08 1.82-.14.27-1.68.43-2.14.44-2.47.05-4.93.02-7.4.1-2.85.09-5.71.16-8.56.19-5.54.07-11.12-.28-16.66-.08-1.19.04-2.39.15-3.59.07-.71-.05-2-.1-2.38-.81-.38-.71-.35-1.86-.4-2.61-.07-.98-.05-1.97.04-2.95.4-4.06 2.21-8.02 5.16-10.86 1.75-1.69 3.89-2.93 6.23-3.6 1.41-.4 2.72-.51 4.17-.56.85-.03 1.54-.4 2-1.12.97-1.55 1.17-3.82 1.34-5.62.29-2.97-.47-5.96.23-8.9.23-.94-1.22-1.34-1.45-.4-.64 2.65-.19 5.31-.22 8-.01 1.07-.17 2.12-.35 3.18-.15.87-.25 2.29-.86 2.98-.42.48-.96.35-1.55.35-.55 0-1.1.09-1.64.19-1.37.23-2.7.6-3.98 1.14-1.9.8-3.64 1.97-5.11 3.42-2.95 2.91-4.81 6.86-5.37 10.95-.27 1.95-.22 3.88.1 5.82.27 1.68.99 2.39 2.66 2.74 2.51.52 5.23.07 7.78.11 2.91.05 5.81.1 8.72.1 6.12 0 12.23-.35 18.35-.39 1.8 0 3.93.42 5.57-.58 1.17-.71.74-2.11.72-3.27-.05-3 0-6.01 0-9.02.04-7.77.33-15.61-.13-23.37-.06-.96-1.56-.97-1.5 0h.01Z"/><path fill="#B47BFF" d="m135.73 201.97.04-.19c.55.42.77 1.47.98 2.09.4 1.2.7 2.44 1.02 3.66.95 3.64 2.11 7.18 2.83 10.89.46 2.35 1.32 4.59 1.86 6.92.11.47.3.97.38 1.44.06.35 0 .8.24 1.1.36.45.56.17 1.08-.01.76-.27 1.5-.44 2.25-.77 1.33-.58 2.61-1.11 3.9-1.79 2.04-1.07 4.09-2.16 6.08-3.31 1.46-.85 2.92-1.74 4.37-2.62.96-.58 1.95-1.11 2.89-1.75 3.06-2.07 5.94-4.64 8.38-7.4 2.19-2.48 4.22-5.61 4.23-9.03 0-4.28-3.93-7.94-8.03-8.4-2.18-.24-4.04.07-6.03.96-1.17.52-2.29 1.3-3.42 1.92-1.74.94-3.63 1.8-5.24 2.94-.62.43-1.27.99-1.94 1.34-.53.28-.51.25-.82-.28-.31-.53-.58-1.02-.96-1.54"/><path fill="#000" d="m136.46 202.17.04-.19-1.25.33c.52.5.65 1.32.86 1.99.31.98.57 1.98.83 2.98.51 1.97 1.08 3.92 1.62 5.88.56 2.03 1.01 4.07 1.47 6.13.43 1.89 1.08 3.73 1.56 5.6.21.82.43 1.63.57 2.47.08.51.22 1.01.68 1.31.41.27.77.21 1.21.07.89-.29 1.8-.58 2.66-.94 3.76-1.57 7.36-3.54 10.87-5.6 6.44-3.79 13.05-7.89 17.21-14.31 1.71-2.65 2.86-5.99 1.84-9.11-.9-2.77-3.17-4.99-5.85-6.07-3.49-1.4-7.33-.61-10.49 1.23-1.87 1.09-3.81 2.04-5.68 3.13-.84.49-1.61 1.05-2.39 1.61-.16.12-.32.23-.49.34-.16.11-.32.21-.5.3h.21c-.34-.24-.72-1.2-.96-1.55-.55-.79-1.85-.04-1.3.76.52.75 1.03 2.48 2.2 2.34.57-.07 1.15-.57 1.59-.89.73-.52 1.44-1.05 2.21-1.51 1.42-.84 2.93-1.53 4.36-2.34 1.64-.93 3.16-1.93 5.02-2.37 3.25-.78 6.67.14 8.95 2.62 2.4 2.62 2.44 6.07.9 9.16-1.55 3.12-4.13 5.71-6.7 8.01-2.74 2.45-5.78 4.29-8.9 6.18-3.16 1.92-6.39 3.79-9.73 5.4-1.52.74-3.43 1.87-5.12 2.05-.72.08-.1.33-.34-.09-.07-.13-.1-.7-.14-.84-.22-.94-.49-1.89-.76-2.82-1.14-3.98-1.99-8.02-3.11-12-.55-1.96-1.07-3.94-1.6-5.91-.37-1.35-.67-3.23-1.72-4.25-.39-.38-1.13-.23-1.25.33l-.04.19c-.21.94 1.23 1.34 1.45.4v-.02h.01Z"/><path fill="#B47BFF" d="M128.29 150.59c.36-1.44.78-3.52 2.56-3.3 2.24.28 1.25 2.61 1.8 4.05"/><path fill="#000" d="M129.01 150.79c.08-.31.15-.63.24-.94.04-.16.09-.32.14-.47.02-.07.04-.13.07-.2 0-.04.03-.08.05-.12 0-.03.09-.18.03-.07-.06.11.02-.03.02-.05 0-.03.03-.06.04-.09.04-.07.07-.14.12-.21.04-.06.07-.12.11-.18a.55.55 0 0 0 .07-.09c-.1.12 0 .06 0 0 .04-.04.08-.09.13-.13.02-.02.08-.06.1-.09 0 .02-.15.1-.05.04.06-.03.11-.07.17-.1.11-.06.04.03-.04.01.02 0 .11-.04.13-.04.03 0 .06-.02.09-.02.05 0 .13-.06.04 0-.08.05 0 0 .05 0h.1s.09.01.13 0c-.18-.04.1-.01 0 0 .09.02.18.03.27.06.04.01.08.03.12.04.12.04 0 .05-.03 0 .02.03.12.06.16.08l.09.06c.08.04-.13-.13-.04-.03.02.02.15.13.14.14-.01.01-.11-.17-.04-.04.02.03.03.05.05.08.02.03.1.21.05.09s.02.06.03.1c.02.07.04.14.06.22 0 .03.05.15.03.19.02-.04-.02-.17 0-.07 0 .04 0 .07.01.11 0 .15.02.3.03.45.03.68 0 1.41.25 2.06.14.37.51.66.92.52.36-.12.67-.53.52-.92a3.03 3.03 0 0 1-.12-.43c0-.04-.01-.07-.02-.11-.03-.15 0 .15 0 .05 0-.09-.02-.18-.03-.27-.02-.32-.03-.64-.04-.96-.03-.75-.13-1.5-.62-2.09-.56-.68-1.54-.9-2.37-.78-.83.12-1.43.7-1.8 1.39-.41.76-.61 1.6-.81 2.43-.09.38.12.83.52.92.4.09.82-.12.92-.52h.01v-.02Z"/><path fill="#B47BFF" d="M123.37 151.07c-6.11.87-15.71 1.92-20.03 6.98-5 5.84-6.27 13.9-5.24 21.4.94 6.83 3.52 15.67 9.73 19.2 4.15 2.36 9.84 3.05 14.45 3.68 5.13.71 9.93 1.37 15.15 1.21 7.07-.21 14.49-.02 19.29-6.24 3.54-4.59 4.17-9.77 4.31-15.44.21-8.25 2.31-16.51-3.75-23.18-4.27-4.71-9.06-6.62-15.21-7.73-2.5-.45-5.03-.46-7.56-.4-3.7.09-7.48 0-11.14.51v.01Z"/><path fill="#000" d="M123.17 150.34c-5.54.78-11.4 1.42-16.41 4.11-5.52 2.96-8.43 9.27-9.36 15.23-.96 6.19-.07 12.77 2.01 18.66.95 2.69 2.22 5.28 4.03 7.51 1.92 2.36 4.4 3.89 7.25 4.9 3.36 1.19 6.91 1.69 10.43 2.17 3.82.52 7.65 1.08 11.5 1.3 3.5.19 7.06.09 10.56-.15 2.87-.2 5.74-.64 8.39-1.81 6.11-2.69 9.08-9.04 9.86-15.36.42-3.38.39-6.82.62-10.22.22-3.28.42-6.58-.11-9.84-1.04-6.4-5.73-11.5-11.52-14.18-6.75-3.13-14-2.96-21.27-2.77-2.01.05-4.01.18-6 .45-.95.13-.55 1.57.4 1.45 3.93-.53 7.94-.45 11.89-.5 3.46-.05 6.82.31 10.16 1.22 5.79 1.59 11.6 5.33 13.91 11.11 2.3 5.75.94 12.25.75 18.24-.19 6.28-1.19 13.16-6.46 17.33-4.58 3.62-10.87 3.46-16.39 3.6-3.64.09-7.27-.19-10.88-.64-3.61-.45-7-.85-10.44-1.53-3.02-.59-6.16-1.39-8.73-3.14-2.32-1.58-3.99-3.97-5.21-6.45-2.47-5.01-3.67-11-3.64-16.56.04-6.5 2.17-14.48 8.02-18.15 5-3.14 11.31-3.71 17.02-4.52.95-.13.55-1.58-.4-1.45h.02v-.01ZM141.72 149.25c.97 0 .97-1.5 0-1.5s-.97 1.5 0 1.5ZM194.18 96.11c2.4.49 4.54 2.01 7.02 2.13.4.02.75-.36.75-.75 0-.42-.34-.73-.75-.75-1.08-.05-2.13-.5-3.13-.9-1.14-.45-2.28-.93-3.49-1.18-.4-.08-.81.12-.92.52-.1.37.13.84.52.92v.01Z"/></svg>