<svg xmlns="http://www.w3.org/2000/svg" width="246" height="246" fill="none"><path fill="#FFC200" d="M111.449 229.927c-11.078-3.345-14.32-15.496-21.784-22.784-5.946 2.808-11.872 5.647-17.829 8.424-3.892 1.817-11.893 7.495-16.456 6.339-6.143-1.559-3.696-12.988-3.293-17.633.764-8.786 4.77-17.675-4.398-22.465-6.308-3.303-13.349-6.906-19.202-10.902-5.792-3.954-3.965-9.498-4.594-15.382-.475-4.429-1.053-8.497-1.033-13.018l.186-29.557c0-12.946.155-25.892.238-38.849.051-8.259-2.819-20.874 7.185-24.746 7.805-3.025 19.43-1.806 27.75-2.405 8.239-.413 16.467-1.311 24.684-1.497s15.672-3.345 23.704-4.636c3.499-.557 7.299-1.032 10.458-2.756 4.418-2.416 3.912-5.678 6.018-9.58 4.357-8.043 15.104-11.13 23.084-6.897 10.582-8.713 25.015-4.398 28.866 7.836.155.495 17.457-2.56 19.543-2.88 4.108-.64 12.811-3.273 13.782 3.19.444 2.932-2.034 7.216-2.953 9.91-1.012 2.974-2.261 5.524-3.623 8.177-.919 1.786-1.859 4.47 1.352 4.367 2.932-.083 5.998-3.293 8.889-4.026 1.755-.444 3.747-.62 5.337.216 3.211 1.683 4.016 9.488 4.233 12.637.464 6.875.63 13.772.692 20.668.134 13.514-.145 27.038.722 40.531-.433 15-.155 30.001.114 44.516.082 11.408-17.623 14.371-25.19 19.904.155-.113 14.463 12.822 15.496 14.072 5.564 6.731.97 14.732-9.126 16.383-1.766-.175-91.128 13.876-92.863 12.864z" opacity=".37"/><path fill="#FFC200" d="m33.711 59.06-.63 102.917c.021-.495 60.178 32.892 60.178 32.892L95.89 85.612 33.711 59.07z"/><path fill="#050505" d="m32.937 59.06-.062 10.24-.155 24.602-.186 29.753-.155 25.613-.052 8.486c0 1.322-.134 2.716-.02 4.037v.176c0 .939 1.208.97 1.517.206 0 .021-.846.681-.877.547 0 .041.062.083-.052-.02.093.082.29.134.403.185.444.227.898.455 1.342.682 1.518.795 3.035 1.6 4.542 2.416 4.842 2.611 9.664 5.254 14.495 7.897a9641 9641 0 0 1 31.9 17.602c2.437 1.353 4.863 2.695 7.3 4.047a.784.784 0 0 0 1.166-.671c.082-3.613.175-7.227.258-10.84.206-8.723.423-17.447.63-26.16.258-10.51.506-21.019.764-31.529.217-9.085.433-18.17.66-27.255l.217-8.992c.031-1.404.196-2.88.103-4.284v-.196c0-.248-.144-.568-.382-.671-7.02-2.994-14.03-5.988-21.05-8.982-11.17-4.77-22.33-9.54-33.5-14.298-2.54-1.085-5.09-2.169-7.63-3.263-.908-.382-1.693.95-.784 1.342 7.02 2.994 14.03 5.988 21.05 8.982 11.17 4.77 22.33 9.54 33.5 14.298 2.54 1.084 5.09 2.168 7.63 3.263l-.382-.671c-.083 3.613-.176 7.226-.258 10.84-.207 8.723-.423 17.447-.63 26.16-.258 10.51-.506 21.019-.764 31.529-.217 9.085-.433 18.17-.66 27.255l-.217 8.992-.073 2.808c-.01.433-.144 1.053-.03 1.476.01.052 0 .134 0 .196l1.166-.671c-6.979-3.871-13.968-7.743-20.957-11.604-10.871-5.998-21.732-12.017-32.654-17.901-1.673-.898-3.335-1.797-5.028-2.674-.712-.372-2.178-1.445-2.664-.258l1.518.206.062-10.241.155-24.601.186-29.754.154-25.613.052-8.486c0-1.321.134-2.715.02-4.037v-.175c0-1.001-1.538-1.001-1.548 0z"/><path fill="#FFC200" d="M95.891 85.6c-5.988-3.871-13.08-4.45-17.127-6.535C66.2 72.602 46.234 64.87 33.722 59.058l85.233-6.112 48.408 21.515-71.461 11.15z"/><path fill="#050505" d="M96.273 84.93c-3.944-2.489-8.383-3.676-12.822-4.977-3.82-1.115-7.258-3.076-10.85-4.749-8.384-3.912-16.932-7.453-25.449-11.077-4.377-1.868-8.744-3.747-13.06-5.74l-.392 1.446c6.71-.486 13.432-.96 20.142-1.446L92.773 55.6l25.479-1.828c.165-.01.475.031.63-.04-.134.061-.547-.228-.052.02 1.136.578 2.354 1.042 3.521 1.559 5.079 2.26 10.158 4.511 15.248 6.772 9.611 4.274 19.212 8.538 28.824 12.812l.526.237.186-1.414c-8.063 1.26-16.136 2.519-24.199 3.778-12.812 2.003-25.613 3.996-38.425 5.999-2.942.454-5.884.918-8.837 1.373-.98.154-.568 1.641.413 1.497l24.199-3.779c12.812-2.003 25.613-3.995 38.425-5.998 2.942-.454 5.884-.919 8.837-1.373.64-.103.774-1.156.186-1.415-8.383-3.726-16.766-7.453-25.149-11.17-5.544-2.467-11.098-4.935-16.642-7.392-1.713-.764-3.438-1.527-5.151-2.291-.568-.248-1.249-.682-1.879-.754s-1.301.093-1.9.134l-4.553.33-15.01 1.074c-13.008.93-26.006 1.869-39.014 2.798-8.114.578-16.24 1.084-24.343 1.745l-.382.03c-.692.052-1.146 1.095-.393 1.446 8.001 3.706 16.157 7.04 24.261 10.51 4.233 1.816 8.466 3.654 12.657 5.574 3.52 1.621 6.969 3.696 10.623 4.966 4.976 1.724 10.107 2.643 14.63 5.503.846.536 1.62-.806.784-1.343z"/><path fill="#fff" d="M134.821 46.205c-3.541-2.798-5.379-8.187-2.87-12.316.795-1.312 2.643-3.428 4.295-3.82 1.837-.424 3.809.196 5.43.877.898.382 1.301.279 2.013 1.002.713.722 1.105 1.848 1.466 2.787.516 1.342.661 2.457.847 3.882.247 1.889.124 3.107-1.022 4.728-1.064 1.497-1.704 2.147-3.345 2.52"/><path fill="#050505" d="M135.368 45.659c-1.982-1.6-3.396-3.903-3.737-6.453s.609-4.862 2.354-6.69c.939-.99 1.961-1.765 3.376-1.806 1.538-.052 2.921.557 4.336 1.074.537.196 1.022.289 1.435.712.506.516.795 1.218 1.053 1.89.537 1.383.846 2.756 1.032 4.222s.093 2.808-.764 4.109c-.795 1.207-1.61 2.044-3.035 2.395-.971.237-.558 1.734.413 1.497 2.818-.692 4.997-3.624 5.038-6.515.021-1.641-.279-3.479-.795-5.038-.475-1.455-1.063-3.18-2.375-4.088-.547-.382-1.218-.516-1.837-.764-.909-.361-1.807-.702-2.767-.877-1.672-.31-3.334-.186-4.739.815-2.436 1.724-4.16 4.48-4.336 7.485-.196 3.479 1.57 6.979 4.244 9.136.764.62 1.868-.464 1.094-1.094z"/><path fill="#fff" d="M156.924 44.09c-2.023.237-4.17-.94-4.965-2.107-.878-1.28-1.363-2.766-1.497-4.284-.217-2.478 1.022-5.017 1.992-7.32 1.064-2.519 3.397-2.612 5.802-2.921 3.737-.475 6.886 2.787 7.258 6.38.175 1.745.537 3.242.144 4.945-.278 1.25-.681 3.572-1.982 4.12"/><path fill="#050505" d="M156.925 43.315c-1.446.124-2.994-.361-4.027-1.404s-1.507-2.684-1.651-4.078c-.166-1.61.289-3.17.867-4.656.464-1.208.908-2.86 1.91-3.737.846-.744 2.033-.93 3.117-1.084 1.198-.165 2.344-.3 3.521.103 2.416.847 3.82 3.231 4.119 5.668.207 1.693.403 3.262.031 4.945-.227 1.032-.454 2.622-1.507 3.138-.898.444-.114 1.776.784 1.342 1.219-.609 1.714-2.054 2.034-3.282.434-1.673.568-3.232.351-4.956s-.382-3.304-1.239-4.81c-.733-1.291-1.837-2.417-3.148-3.098-1.404-.733-2.829-.857-4.378-.66-1.373.165-2.839.309-4.047 1.063-1.445.887-1.971 2.405-2.601 3.902-.754 1.796-1.466 3.717-1.384 5.71.083 1.878.713 4.015 1.993 5.44 1.28 1.424 3.386 2.178 5.265 2.013.991-.083.991-1.631 0-1.549z"/><path fill="#060606" d="m138.476 38.721.403.444v-2.188s-.062.072-.103.103l.309-.238s-.072.052-.103.062l.372-.155s-.062.021-.103.031l.412-.051h-.103l.413.051-.103-.03.372.154a.4.4 0 0 1-.145-.093l.31.238s-.021-.02-.031-.02l.237 1.878c.042-.072.083-.134.134-.206l-.237.31c.072-.094.165-.187.258-.259l-.31.238c.073-.052.145-.104.228-.145l-1.879-2.436a5 5 0 0 0-.3.382c-.02.02-.031.051-.051.072-.021.02-.031.052-.052.083 0 .01-.01.03-.021.04-.062.135-.113.27-.165.404-.02.061-.041.123-.051.185l-.031.248-.031.248v.113c0 .217.041.413.134.6.062.195.165.36.32.495.144.155.31.258.495.32.186.093.382.144.599.134l.413-.052q.387-.108.681-.402l.238-.31c.144-.238.206-.506.206-.785v-.144l-.051.413a.8.8 0 0 1 .072-.248l-.155.372a.8.8 0 0 1 .124-.207l-.237.31s.041-.041.051-.062c.155-.145.258-.31.32-.496a1.2 1.2 0 0 0 .135-.598l-.052-.413a1.2 1.2 0 0 0-.279-.527.9.9 0 0 0-.279-.279 1.2 1.2 0 0 0-.526-.278l-.413-.052c-.279 0-.537.072-.785.207a.8.8 0 0 0-.196.123 4 4 0 0 0-.475.372l-.072.072c-.114.124-.206.258-.31.393-.041.062-.093.124-.124.196l-.154.371a1.25 1.25 0 0 0-.031.62c0 .144.031.268.103.392.062.196.165.362.32.496.134.103.258.217.402.31.021 0 .031.02.052.03 0 0 .021 0 .031.01.124.052.258.114.382.166l.093.03c.134.022.299.042.434.063h.092c.135-.02.29-.031.424-.062.02 0 .031 0 .041-.01.072-.021.165-.062.227-.093s.155-.062.227-.104c.011 0 .031-.02.042-.03l.02-.021c.114-.083.227-.165.331-.248l.093-.093c.154-.144.258-.31.32-.495a1.2 1.2 0 0 0 .134-.6l-.052-.412a1.54 1.54 0 0 0-.402-.681l-.403-.444a1.2 1.2 0 0 0-.496-.32 1.2 1.2 0 0 0-.598-.135c-.217 0-.413.042-.599.134a1.06 1.06 0 0 0-.496.32l-.237.31a1.5 1.5 0 0 0-.207.785l.052.413q.108.387.403.681zM160.476 36.45l.475-.392-2.591-1.507s0 .02-.011.03l.155-.371s-.051.093-.082.134l.237-.31s-.072.083-.113.114l.309-.237c-.051.04-.113.072-.175.103l.371-.155c-.082.031-.165.052-.247.072l.413-.051c-.135.02-.269.01-.403 0-.217 0-.413.041-.599.134a1.06 1.06 0 0 0-.495.32c-.155.144-.258.31-.32.495a1.2 1.2 0 0 0-.135.6l.052.412q.108.387.403.682l.309.237c.238.145.506.207.785.207q.186.03.372 0c.186-.021.382-.042.557-.083s.361-.134.506-.207c.041-.02.093-.04.124-.072.124-.082.248-.186.361-.279.021-.02.042-.03.052-.051s.031-.031.051-.052c.093-.113.197-.237.279-.361l.031-.062a4 4 0 0 0 .186-.434l.052-.413c0-.216-.042-.413-.135-.598a.8.8 0 0 0-.196-.341 1.35 1.35 0 0 0-.433-.403l-.372-.155-.413-.051c-.217 0-.413.041-.599.134a1.06 1.06 0 0 0-.495.32l-.475.392c-.155.145-.258.31-.32.496a1.2 1.2 0 0 0-.134.599c0 .217.041.413.134.598.062.197.165.362.32.496l.31.237c.237.145.505.207.784.207l.413-.052q.387-.108.682-.402z"/><path fill="#050505" d="M95.23 86.25c-.196 4.109-.547 6.256-.516 9.446.03 3.015.165 6.029.134 9.054-.041 3.985-.681 7.97-.62 11.955.114 7.433.548 14.918-.072 22.423-.681 8.239-.877 16.549-.774 24.716.083 6.204.134 12.419.196 18.634.02 2.251.052 4.491.072 6.741.01 1.26.062 6.411.062 6.411s6.68-1.187 9.488-1.084c1.796.062 5.255-.433 7.123-.712 2.354-.351 4.698-.671 7.051-1.012 4.419-.629 8.848-1.269 13.267-1.899 4.366-.63 8.733-1.249 13.09-1.879 2.075-.299 3.655-.124 5.678-.857 1.869-.671 4.398-1.363 6.401-1.641 8.775-1.239 18.046-1.828 26.821-3.087l-.114-4.378c-.061-5.564.424-11.49.259-17.034-.145-4.811-.362-9.58-.413-14.412-.031-3.159-.021-6.328-.124-9.487-.093-2.85-.3-5.668-.31-8.538-.031-5.121-.361-10.19-.403-15.31-.051-5.596-.113-11.191-.185-16.776-.062-4.956.134-9.932.092-14.887-.03-3.17.362-5.152-.33-8.166l-3.169.185c-2.922-.123-6.339.341-8.559.682a1883 1883 0 0 1-10.685 1.538c-8.445 1.208-16.931 2.674-25.365 3.428-3.892.34-7.826.98-11.697 1.827-1.92.423-3.851.578-5.781.877-1.921.29-3.8.909-5.699 1.322-2.23.485-4.419.557-6.638.526-1.219-.01-3.655.424-4.873.63z"/><path fill="#060606" d="M94.455 86.25c-.165 3.15-.536 6.288-.516 9.447.02 3.85.269 7.701.042 11.542-.228 3.84-.568 7.804-.486 11.748.093 3.985.227 7.98.207 11.965-.041 7.877-.94 15.723-1.074 23.59-.134 7.795.052 15.599.134 23.404l.186 17.685c0 .537.485.836.98.743 3.263-.578 6.526-1.012 9.839-1.053 2.437-.031 4.873-.465 7.279-.816 3.458-.505 6.917-.991 10.375-1.486l20.772-2.973c1.538-.217 3.076-.351 4.625-.517 1.548-.165 2.88-.65 4.325-1.094 3.035-.939 6.133-1.332 9.271-1.703 7.474-.878 14.98-1.466 22.444-2.519.32-.042.578-.444.568-.744-.135-4.883-.031-9.735.103-14.618.217-7.567-.33-15.135-.392-22.702-.062-7.722-.31-15.444-.579-23.156s-.309-15.95-.412-23.93c-.052-4.45.041-8.89.072-13.329.02-3.768.433-7.743-.362-11.449-.072-.31-.423-.588-.743-.568-4.005.228-7.949.3-11.934.888-6.958 1.022-13.927 2.024-20.885 3.056-3.49.516-6.989 1.012-10.489 1.414-3.262.372-6.545.62-9.797 1.105-3.428.516-6.793 1.342-10.221 1.796-3.427.455-6.38 1.518-9.632 1.92-1.724.217-3.448.114-5.172.217-1.28.073-2.571.31-3.83.517-1.384.237-2.746.578-4.11.877-.97.217-.557 1.714.414 1.497 1.135-.258 2.26-.537 3.407-.764 2.529-.495 4.955-.516 7.515-.65 3.18-.166 6.112-1.198 9.23-1.755 1.6-.29 3.211-.424 4.811-.682 1.786-.289 3.551-.722 5.337-1.042 6.525-1.167 13.173-1.549 19.739-2.488 6.855-.981 13.7-2.024 20.555-3.015 3.386-.485 6.772-1.105 10.2-1.177 1.631-.041 3.241-.072 4.883-.165l-.744-.568c.733 3.397.321 7.072.31 10.52-.02 3.933-.134 7.867-.103 11.81.072 7.805.072 15.62.351 23.415.268 7.732.609 15.475.661 23.208.051 7.577.578 15.176.464 22.743-.082 5.699-.309 11.366-.165 17.075l.568-.743c-6.752.96-13.545 1.507-20.317 2.271-3.108.351-6.277.62-9.323 1.384-1.373.34-2.684.826-4.026 1.228-1.559.465-3.18.444-4.78.64-6.824.847-13.617 1.951-20.42 2.922l-10.407 1.487c-2.735.392-5.482.877-8.248 1.073-2.251.155-4.471.155-6.721.454-1.559.207-3.118.444-4.666.713l.98.743c-.124-12.77-.454-25.541-.35-38.311.03-3.872.144-7.754.34-11.625.207-3.985.62-7.949.723-11.934.206-7.857-.516-15.692.093-23.538.34-4.357.289-8.662.206-13.029-.072-3.675.3-7.289.485-10.954.052-.99-1.497-.99-1.548 0z"/><path fill="#FFC200" d="M181.527 73.75c1.001-4.161 2.446-8.053 4.201-12.038 2.014-4.584 3.614-9.126 5.524-13.772 1.373-3.335 4.243-11.108 4.243-11.108s-22.372 3.468-31.88 4.439c-14.856 1.497-53.457 7.887-53.457 7.887s-4.356 8.982-5.647 12.327c-2.095 5.45-4.77 10.747-6.958 16.177-1.218 3.025-3.283 8.29-3.283 8.29s13.359-.671 17.416-1.321c9.519-1.528 20.503-2.427 30.022-3.965 5.812-.888 10.84-1.63 16.652-2.519 7.444-1.125 18.841-3.86 23.032-3.82.042-.196.083-.382.124-.578z"/><path fill="#050505" d="M182.269 73.955c1.043-4.254 2.581-8.3 4.315-12.316 1.662-3.841 3.108-7.764 4.646-11.646a547 547 0 0 0 4.986-12.956c.227-.62-.433-1.032-.949-.95-7.31 1.136-14.619 2.22-21.949 3.21-8.476 1.147-16.993 2.014-25.458 3.222-9.467 1.352-18.903 2.829-28.349 4.336-2.788.444-5.585.898-8.373 1.352-.361.062-.867.052-1.208.196-.908.382-1.404 2.323-1.786 3.108-2.632 5.523-4.873 11.19-7.361 16.776a408 408 0 0 0-7.267 17.447c-.176.465.278 1.002.743.98 3.355-.164 6.7-.37 10.045-.608 5.389-.392 10.664-1.25 16.022-1.92 14.412-1.807 28.876-3.48 43.164-6.143 3.397-.63 6.783-1.322 10.19-1.94 2.529-.455 5.13-1.002 7.711-1.002.32 0 .682-.238.744-.568.041-.196.082-.382.124-.578.227-.97-1.27-1.384-1.497-.413-.042.196-.093.382-.124.578l.743-.568c-2.189 0-4.398.403-6.555.774-2.984.506-5.947 1.105-8.91 1.673-6.814 1.311-13.679 2.281-20.544 3.314-7.557 1.135-15.125 2.096-22.702 3.025-5.585.681-11.119 1.651-16.725 2.085-3.892.31-7.794.537-11.686.733l.743.98c2.013-5.14 4.057-10.25 6.308-15.289 2.343-5.213 4.408-10.54 6.824-15.723.795-1.703 1.755-3.386 2.436-5.13.362-.91.052.123-.206-.114.052.051.516-.083.578-.093 2.375-.392 4.749-.774 7.123-1.157 9.137-1.465 18.274-2.9 27.431-4.232 8.29-1.208 16.621-2.096 24.921-3.18s16.838-2.343 25.242-3.644l-.95-.95a518 518 0 0 1-4.986 12.956c-1.621 4.068-3.149 8.156-4.883 12.172-1.663 3.82-3.098 7.733-4.078 11.78-.238.97 1.259 1.383 1.497.412z"/><path fill="#FFC200" d="M86.051 89.38c-6.204 3.282-13.338 6.245-19.656 9.29-1.962.95-3.748 2.014-3.81 2.365-.712 4.17 1.157 41.842-.268 63.563.61 14.381.454 29.485.31 43.897 1.559-.62 3.087-1.476 4.346-2.179 2.746-1.042 5.234-2.488 7.753-3.633 6.504-2.984 12.936-6.091 19.306-8.497 1.187-19.842-.197-38.673-.135-57.906.021-7.65 1.064-15.733.362-22.919-.3-3.107.31-7.577.041-10.716-.361-4.222.34-17.344.34-17.344s-5.347 3.025-8.578 4.068z"/><path fill="#050505" d="M85.66 88.719c-5.11 2.694-10.407 4.996-15.651 7.412-2.406 1.105-5.008 2.116-7.186 3.655-.805.578-1.011 1.042-1.084 1.982-.392 5.069-.041 10.262.052 15.341.144 8.321.3 16.652.31 24.983 0 4.295-.031 8.579-.135 12.874-.113 4.295-.444 8.559-.289 12.853.465 13.566.32 27.131.186 40.697 0 .454.506.939.98.743 2.406-.981 4.709-2.24 7.062-3.345 2.53-1.187 5.007-2.447 7.537-3.613 5.544-2.571 11.077-5.183 16.797-7.351.34-.134.547-.382.567-.743 1.022-17.396.062-34.791-.113-52.197-.042-4.243 0-8.476.196-12.719.206-4.233.485-8.466.34-12.709-.061-1.817-.299-3.623-.288-5.44.01-1.817.134-3.603.175-5.4.062-2.405-.165-4.8-.155-7.206.02-4.398.207-8.806.444-13.204.031-.598-.681-.94-1.166-.67-2.685 1.517-5.472 3.014-8.404 3.994-.94.31-.537 1.807.413 1.497 3.056-1.022 5.967-2.57 8.765-4.15l-1.167-.67a345 345 0 0 0-.423 11.314c-.041 2.189 0 4.367.113 6.556.186 3.469-.36 6.937-.051 10.406.722 8.362-.403 16.797-.382 25.18.03 8.579.31 17.158.485 25.747.196 9.89.238 19.791-.35 29.681l.567-.743c-5.523 2.095-10.881 4.594-16.24 7.072a376 376 0 0 0-7.443 3.551c-1.228.599-2.519 1.063-3.727 1.672-1.331.671-2.601 1.435-3.985 2.003l.981.744c.114-11.832.238-23.663-.041-35.494-.072-2.88-.351-5.822-.258-8.703.062-1.775.196-3.551.268-5.327.165-4.17.227-8.352.258-12.522.052-8.363-.072-16.735-.217-25.097-.103-5.885-.31-11.79-.206-17.675.01-.712-.093-1.621.103-2.312.083-.279-.206.134.114-.134.485-.403 1.084-.713 1.63-1.012 1.374-.764 2.809-1.404 4.223-2.075 5.73-2.674 11.553-5.152 17.148-8.104.878-.465.103-1.807-.785-1.343z"/><path fill="#FFC200" d="M189.362 68.97c5.957-2.87 20.307-9.829 21.68-9.86 1.993 20.297.083 42.059 1.652 62.779-.444 15.269-.444 29.454-.165 44.01-1.394 1.735-2.674 2.654-3.882 3.201-2.622 1.693-5.017 2.715-7.423 4.067-5.874 3.273-12.471 6.37-18.614 10.851-.351-34.626-2.911-67.766-.671-104.838-.413-9.312.63-5.42 7.444-10.21z"/><path fill="#050505" d="M189.755 69.64a1116 1116 0 0 1 12.264-5.863 217 217 0 0 1 5.905-2.684c.672-.29 1.353-.589 2.045-.847.247-.093.505-.186.753-.268.103-.031.516-.104.32-.093l-.774-.774c1.807 18.685.444 37.475 1.259 56.192.104 2.364.393 4.749.372 7.103-.021 2.457-.134 4.914-.175 7.371a802 802 0 0 0-.155 14.143c-.011 4.636 0 9.281.062 13.917.031 2.354.155 4.728.103 7.082-.041 1.941-2.643 3.004-4.099 3.902-3.985 2.447-8.29 4.501-12.419 6.7-4.47 2.385-8.899 4.852-13.008 7.826l1.167.671c-.176-17.334-.919-34.657-1.322-51.98-.206-8.858-.32-17.706-.237-26.563.041-4.543.134-9.085.289-13.628.072-2.271.165-4.532.278-6.803s.372-4.45.29-6.649c-.062-1.528-.62-4.542.96-5.544.681-.423 1.497-.66 2.219-.99 1.373-.61 2.664-1.363 3.903-2.22.815-.568.041-1.91-.785-1.342-1.838 1.28-3.799 2.033-5.781 3.024-1.363.682-1.89 1.797-2.044 3.283-.145 1.312-.073 2.654-.021 3.975.093 2.302-.207 4.666-.32 6.969a547 547 0 0 0-.465 14.257c-.34 18.025.227 36.04.775 54.055.309 10.045.598 20.1.702 30.156 0 .537.671 1.022 1.166.671 7.165-5.172 15.248-9.023 23.033-13.173 1.641-.878 3.427-1.755 4.893-2.912.754-.588 1.673-1.331 2.158-2.168.485-.836.196-2.075.186-2.994-.083-4.717-.124-9.435-.145-14.153-.01-4.76 0-9.509.072-14.268.062-4.924.485-9.931.155-14.845-.64-9.602-.578-19.244-.547-28.855.031-10.747.052-21.515-.981-32.22-.041-.393-.32-.806-.774-.775-1.115.072-2.251.712-3.262 1.146a193 193 0 0 0-5.968 2.694c-4.305 2.003-8.579 4.068-12.853 6.133-.898.433-.113 1.765.785 1.342z"/><path fill="#FFC200" d="M182.693 184.016c.372.557 1.012 1.569 1.714 2.261.867.856 2.447 3.014 3.469 3.778 1.672 1.26 14.123 15.94 15.227 16.745l-90.137 12.905c-.526-.083-1.486-1.291-1.848-1.662-.423-.434-4.542-5.978-4.903-6.453-.537-.712-1.239-1.207-1.724-1.971-.62-.991-.94-1.766-1.807-2.633-1.745-1.745-2.726-3.593-4.284-5.441-1.023-1.197-2.932-4.305-5.152-6.545l40.232-5.193 31.033-4.191 18.17-1.611z"/><path fill="#050505" d="M182.021 184.409c2.323 3.531 5.575 6.287 8.394 9.405 3.138 3.469 6.194 7.02 9.312 10.52.939 1.053 1.858 2.282 2.983 3.149l.186-1.414-12.316 1.765-27.916 3.995c-10.003 1.435-20.007 2.87-30.011 4.295l-18.572 2.663c-.279.042-.991.289-1.27.186-.124-.051.134-.124.062-.175-.485-.351-.909-.919-1.301-1.384-.661-.774-1.249-1.6-1.858-2.405-.775-1.022-1.538-2.055-2.302-3.077s-1.776-1.94-2.468-3.045c-1.197-1.92-2.746-3.479-4.057-5.317-1.094-1.528-2.282-2.983-3.386-4.511-1.146-1.6-2.333-3.17-3.696-4.584l-.547 1.321c5.389-.691 10.778-1.393 16.177-2.085 7.402-.96 14.804-1.91 22.217-2.87 4.15-.537 8.29-1.105 12.44-1.672 6.803-.919 13.596-1.879 20.4-2.757.413-.052-.021 0 .134-.01.382-.031.754-.073 1.136-.103l5.213-.465 10.985-.97.743-.062c.981-.083.991-1.642 0-1.549-6.019.537-12.069.96-18.077 1.6-5.792.62-11.573 1.559-17.344 2.333-3.696.496-7.402 1.002-11.098 1.497-.898.124-1.796.248-2.695.362-.351.051.031 0-.041 0-.206.031-.413.051-.609.082-6.7.867-13.39 1.735-20.09 2.592-6.7.856-12.75 1.641-19.12 2.467-.113.01-.237.031-.35.041-.64.083-1.054.795-.548 1.322 2.819 2.901 5.09 6.452 7.506 9.683.65.868 1.362 1.652 2.085 2.457.754.847 1.177 1.9 1.869 2.788.691.888 1.517 1.683 2.209 2.612 1.373 1.837 2.684 3.747 4.181 5.482.805.929 1.61 1.982 2.911 1.837 5.234-.568 10.448-1.497 15.651-2.24l29.382-4.212 29.267-4.192 10.324-1.476c1.631-.237 3.386-.32 4.997-.712.072-.021.155-.021.227-.031.754-.103.64-1.064.186-1.415.196.155-.155-.165-.207-.216-.175-.186-.361-.372-.536-.558-.527-.568-1.043-1.146-1.559-1.724-1.466-1.641-2.922-3.303-4.378-4.955-2.601-2.953-5.11-6.133-7.99-8.827-1.993-1.858-3.954-3.954-5.461-6.236-.548-.826-1.89-.051-1.343.785z"/></svg>