<svg id="Laag_1" data-name="Laag 1" xmlns="http://www.w3.org/2000/svg" viewBox="0 0 200 200" width="200" height="200"><defs><style>.cls-1{fill:#494949;}.cls-2{fill:#ffae39;}.cls-3{fill:#ffd38f;}.cls-4{fill:#ffe5e5;}.cls-5{fill:#cf4000;}.cls-6{fill:none;}.cls-7{fill:#989898;}.cls-8{fill:#fff;}.cls-9{fill:#ff8c00;}.cls-10{fill:#fa6500;}.cls-11{fill:#282828;}.cls-12{fill:#666;}.cls-13{fill:#7c7c7c;}.cls-14{fill:#aeaeae;}</style></defs><circle class="cls-1" cx="100.14" cy="107.46" r="72.52"/><path class="cls-2" d="M102.88,155.72c-17.95,0-33.88,4.49-43.93,11.43a72.53,72.53,0,0,0,84.94-1.85C133.81,159.42,119.17,155.72,102.88,155.72Z"/><path class="cls-3" d="M99.6,62.12a10.78,10.78,0,0,0-6.39-9.57,54.65,54.65,0,0,0,7.42-3.86,42.53,42.53,0,0,0,6.58-5,32,32,0,0,0,7.82-11c1.31,10.49,4.85,20.26,11.43,27.2l-.06-1.68a4.52,4.52,0,0,1,3.26-1.36c3.47.22,4.4,4.85,4.16,8.72-.35,5.59-2.77,12.63-7.41,12.34-.42,0-.82.24-1.2.1a28.62,28.62,0,0,1-9.13,14.92,23.88,23.88,0,0,1-15.33,5.65h-.52a23.9,23.9,0,0,1-11.92-3.09c-.62-.36-1.21-.74-1.78-1.14a21.35,21.35,0,0,1-4.38-4.21c-2.69-3.44-5-11.71-5.17-12.22v0a40.2,40.2,0,0,1-1.41-11c0-1.58.07-3.18.21-4.77h2.3a2.44,2.44,0,0,0,0,.27A10.76,10.76,0,0,0,88.83,73.16a10.63,10.63,0,0,0,3.06-.45A10.77,10.77,0,0,0,99.6,62.39Zm2.37,0a2.44,2.44,0,0,0,0,.27,10.75,10.75,0,0,0,4.82,9h0a10.78,10.78,0,0,0,16.72-9v-.27a10.77,10.77,0,0,0-21.53,0Zm-1,25.22c3.81-.12,7.64-2.21,11-5.7-7.07.18-14.14.28-21.21.46C93.86,85.86,97.38,87.45,100.92,87.34Z"/><rect class="cls-4" x="75.28" y="102.58" width="53.89" height="23.86"/><path class="cls-5" d="M115,32.7a32,32,0,0,1-7.82,11c-2.39-3.64-8-.78-8-5.29,0-2.63,3.86-4.68,3.86-7.31a3.1,3.1,0,0,0-3.44-3c-1.13,0-2.38.23-3.5.23-2.19,0-3.11-1.2-3.11-3A5.39,5.39,0,0,1,95,21.51l0-.24A47.3,47.3,0,0,1,99.86,21a35.63,35.63,0,0,1,7.94.93,24.2,24.2,0,0,1,15.82,11.32c2.36,3.85,3.55,9.42,4.94,13.67,5.1,15.51,20.73,24.1,20.73,46.2,0,8.23-2.66,14.91-7.07,21.22h0a63.71,63.71,0,0,0-7.05-2.86,78.38,78.38,0,0,0-8.22-2.3c-.69-.16-1.39-.3-2.1-.44-2.07-.41-4.15-.74-6.26-1-.28-2-.57-4-.89-6-.47-2.94-1-5.87-1.62-8.78,4.37-3.72,7.15-9,8.78-15.27a7.17,7.17,0,0,0,1.55.25c4.64.29,7.06-6.75,7.41-12.34.24-3.87-.69-8.5-4.16-8.72a4.52,4.52,0,0,0-3.26,1.36l.06,1.68C119.88,53,116.34,43.19,115,32.7Z"/><path class="cls-2" d="M51.17,142.5a16.55,16.55,0,0,0,6,1.16,18.52,18.52,0,0,0,5.41-.78A20.46,20.46,0,0,0,72.9,135.4a40.61,40.61,0,0,0,6.44-13.62A10.14,10.14,0,0,0,84.28,123a15.38,15.38,0,0,0,9.48-3.19,6.87,6.87,0,0,0,6.14,3.93,6.54,6.54,0,0,0,6.23-4.2,11.2,11.2,0,0,0,7.18,2.27c7,0,11.61-5.8,13.64-12.58a78.38,78.38,0,0,1,8.22,2.3,63.71,63.71,0,0,1,7.05,2.86c13.45,6.43,23.14,17.33,23.14,33.65,0,9.61-3.63,19.2-10.81,25.8-5,4.6-11.12,7.58-17.69,7.58a22.52,22.52,0,0,1-9.27-2l6.16-22.58c-3.29-4.43-7.77-8.43-12.77-10.3-2.2-3.86-2.1-8.24-6.27-7.75a3.84,3.84,0,0,0-.59.11v-7a5.87,5.87,0,0,0-5.88-5.87H93.4a5.87,5.87,0,0,0-5.87,5.87v3.84a2.5,2.5,0,0,0-1.41-.46c-5.61,0-3.1,8.49-8.47,16.4A22.59,22.59,0,0,1,73,154.22l6.93,21.25.28,0a31.61,31.61,0,0,1-18.55,6.42c-13.91,0-21.48-11.63-21.48-25a32.59,32.59,0,0,1,5.21-18h0a16.92,16.92,0,0,0,2.32,1.74A20.11,20.11,0,0,0,51.17,142.5Z"/><path class="cls-3" d="M114.12,172c-.23,0-.46,0-.7,0-1.23,0-2.5.13-3.73.13-4.49,0-6.45-2.61-6.45-4.52a4.4,4.4,0,0,1,1.68-3.19,4.23,4.23,0,0,1-1.58-3.55,6.13,6.13,0,0,1,2.09-4.62,3,3,0,0,1-1-2.45c0-4.05,3.36-8,9.73-8.33.3,0,.61,0,.92,0a16.87,16.87,0,0,1,5.94,1.12c5,1.87,9.48,5.87,12.77,10.3l-6.16,22.58a30,30,0,0,1-8.18-5.56,5.92,5.92,0,0,0-2.13-1.27A11.2,11.2,0,0,0,114.12,172Z"/><path class="cls-6" d="M124.85,108.76c.71.14,1.41.28,2.1.44-2,6.78-6.6,12.58-13.64,12.58a11.2,11.2,0,0,1-7.18-2.27c-3.43-2.72-4.7-7.4-5.24-11.33,0-.17.09-.35.14-.52V107c2.53,0,4.38,0,5.24,0a100.15,100.15,0,0,1,12.33.76C120.7,108,122.78,108.35,124.85,108.76Z"/><path class="cls-3" d="M117.7,101.72c.32,2,.61,4,.89,6a100.15,100.15,0,0,0-12.33-.76c-.86,0-2.71,0-5.24,0-4.29,0-10.51.07-17.06.13.43-1.89.85-3.77,1.24-5.67h0a19,19,0,0,0,4.66.64,19.65,19.65,0,0,0,10.89-3.52,23.88,23.88,0,0,0,15.33-5.65C116.71,95.85,117.23,98.78,117.7,101.72Z"/><path class="cls-3" d="M114.71,138.77c4.17-.49,4.07,3.89,6.27,7.75A16.87,16.87,0,0,0,115,145.4c-.31,0-.62,0-.92,0v-6.54A3.84,3.84,0,0,1,114.71,138.77Z"/><path class="cls-7" d="M114.12,172v.72a5.87,5.87,0,0,1-5.88,5.87H93.4A5.87,5.87,0,0,1,87.67,174c3.37-2.67,2.86-8.09,6.66-11.55,2.57-2.33,8.82-1.83,8.82-6.54a5,5,0,0,0-1.9-4.26h0a5.56,5.56,0,0,0,.61-2.38c0-2.1-.88-3.62-2.53-4.27a7,7,0,0,0,.86-3.22c0-2.95-2.58-4.53-5.44-4.53-3.14,0-5.26,1.48-7.22,3.61v-9A5.87,5.87,0,0,1,93.4,126h14.84a5.87,5.87,0,0,1,5.88,5.87v13.57c-6.37.35-9.73,4.28-9.73,8.33a3,3,0,0,0,1,2.45,6.13,6.13,0,0,0-2.09,4.62,4.23,4.23,0,0,0,1.58,3.55,4.4,4.4,0,0,0-1.68,3.19c0,1.91,2,4.52,6.45,4.52,1.23,0,2.5-.13,3.73-.13C113.66,172,113.89,172,114.12,172Z"/><path class="cls-8" d="M111.93,81.64c-3.37,3.49-7.2,5.58-11,5.7-3.54.11-7.06-1.48-10.2-5.24C97.79,81.92,104.86,81.82,111.93,81.64Z"/><path class="cls-9" d="M100.89,108.18c.54,3.93,1.81,8.61,5.24,11.33a6.54,6.54,0,0,1-6.23,4.2,6.87,6.87,0,0,1-6.14-3.93C96.85,117.4,99.41,113.62,100.89,108.18Z"/><path class="cls-10" d="M99.2,38.41c0,4.51,5.62,1.65,8,5.29a42.53,42.53,0,0,1-6.58,5h0a3.24,3.24,0,0,0-3.13-2.23c-2.89,0-6.83,2.61-9.51,2.61a2.13,2.13,0,0,1-2.4-2c0-1.59,1.66-3.57,1.66-5,0-1.23-1.36-1.8-2.43-1.8a6.05,6.05,0,0,0-2.83.92,12.08,12.08,0,0,1-5.31,1.74c-2,0-3.28-1.19-3.28-4.24a11.71,11.71,0,0,1,.06-1.19c3.28-8.68,9.21-14.92,21.48-16.2l0,.24A5.39,5.39,0,0,0,93,25.28c0,1.81.92,3,3.11,3,1.12,0,2.37-.23,3.5-.23a3.1,3.1,0,0,1,3.44,3C103.06,33.73,99.2,35.78,99.2,38.41Z"/><path class="cls-3" d="M99.33,145c1.65.65,2.53,2.17,2.53,4.27a5.56,5.56,0,0,1-.61,2.38h0a5,5,0,0,1,1.9,4.26c0,4.71-6.25,4.21-8.82,6.54-3.8,3.46-3.29,8.88-6.66,11.55a8.85,8.85,0,0,1-5.74,1.61,12.93,12.93,0,0,1-1.75-.1l-.28,0L73,154.22a22.59,22.59,0,0,0,4.68-2.59c4.62-3.34,7.07-7.74,9.88-10.79,2-2.13,4.08-3.61,7.22-3.61,2.86,0,5.44,1.58,5.44,4.53A7,7,0,0,1,99.33,145Z"/><path class="cls-6" d="M84,107.14c6.55-.06,12.77-.11,17.06-.13v.65c0,.17-.09.35-.14.52-1.48,5.44-4,9.22-7.13,11.6A15.38,15.38,0,0,1,84.28,123a10.14,10.14,0,0,1-4.94-1.19,65.86,65.86,0,0,0,2.32-14.63h.23Z"/><path class="cls-5" d="M51.17,142.5a20.11,20.11,0,0,1-3.48-1.78A16.92,16.92,0,0,1,45.37,139a18.26,18.26,0,0,1-6.24-14c0-12.1,7.51-17.24,15.31-25,16.66-16.56,12.28-44.68,19-62.51a11.71,11.71,0,0,0-.06,1.19c0,3.05,1.31,4.24,3.28,4.24A12.08,12.08,0,0,0,82,41.16a6.05,6.05,0,0,1,2.83-.92c1.07,0,2.43.57,2.43,1.8,0,1.47-1.66,3.45-1.66,5a2.13,2.13,0,0,0,2.4,2c2.68,0,6.62-2.61,9.51-2.61a3.24,3.24,0,0,1,3.13,2.23h0a54.65,54.65,0,0,1-7.42,3.86,10.68,10.68,0,0,0-4.38-.93,10.8,10.8,0,0,0-9.2,5.16c-1.19.25-2.29.44-3.26.59-.26,1.57-.46,3.16-.6,4.75s-.21,3.19-.21,4.77a40.2,40.2,0,0,0,1.41,11v0c1.24,5,4.76,18.26,4.76,25.85,0,1.11,0,2.23-.08,3.36a65.86,65.86,0,0,1-2.32,14.63A40.61,40.61,0,0,1,72.9,135.4a20.46,20.46,0,0,1-10.31,7.48,18.52,18.52,0,0,1-5.41.78A16.55,16.55,0,0,1,51.17,142.5Z"/><path class="cls-2" d="M100.23,98.6h.52a19.65,19.65,0,0,1-10.89,3.52,19,19,0,0,1-4.66-.64h0q.73-3.52,1.33-7.1h0c.57.4,1.16.78,1.78,1.14A23.9,23.9,0,0,0,100.23,98.6Z"/><path class="cls-8" d="M123.5,62.12a10.77,10.77,0,0,0-21.53,0,2.44,2.44,0,0,0,0,.27,10.75,10.75,0,0,0,4.82,9h0a10.78,10.78,0,0,0,16.72-9Z"/><path class="cls-8" d="M93.21,52.55a70.37,70.37,0,0,1-13.58,4.23,10.68,10.68,0,0,0-1.56,5.34,2.44,2.44,0,0,0,0,.27A10.76,10.76,0,0,0,88.83,73.16a10.63,10.63,0,0,0,3.06-.45A10.77,10.77,0,0,0,99.6,62.39v-.27A10.78,10.78,0,0,0,93.21,52.55Z"/><path class="cls-5" d="M119.79,67.12a6.18,6.18,0,0,1-4.12,5.63A9.15,9.15,0,0,1,108,71.61h0a5.83,5.83,0,0,1-2.18-4.48c0-3.41,3.13-6.17,7-6.17S119.79,63.71,119.79,67.12Z"/><path class="cls-5" d="M96,67.12a6.19,6.19,0,0,1-4.13,5.63,8.94,8.94,0,0,1-2.6.38,9.08,9.08,0,0,1-5-1.52A5.85,5.85,0,0,1,82,67.12C82,63.71,85.13,61,89,61S96,63.71,96,67.12Z"/><path class="cls-9" d="M93.21,52.55a70.37,70.37,0,0,1-13.58,4.23,10.8,10.8,0,0,1,9.2-5.16A10.68,10.68,0,0,1,93.21,52.55Z"/><path class="cls-3" d="M87.53,135.69v5.15c-2.81,3-5.26,7.45-9.88,10.79,5.37-7.91,2.86-16.4,8.47-16.4A2.5,2.5,0,0,1,87.53,135.69Z"/><path class="cls-5" d="M86.53,94.37h0q-.6,3.57-1.33,7.1c-.39,1.9-.81,3.78-1.24,5.67l-2.07,0h-.23c.06-1.13.08-2.25.08-3.36C81.74,96.2,78.22,83,77,77.94c.15.51,2.48,8.78,5.17,12.22A21.35,21.35,0,0,0,86.53,94.37Z"/><path class="cls-3" d="M79.63,56.78a10.68,10.68,0,0,0-1.56,5.34h-2.3c.14-1.59.34-3.18.6-4.75C77.34,57.22,78.44,57,79.63,56.78Z"/><path class="cls-10" d="M121.77,108.26a.53.53,0,0,1-.24-.06.52.52,0,0,1-.22-.7,25.52,25.52,0,0,0,3-11.5,17.39,17.39,0,0,0-1.45-7.14.52.52,0,1,1,1-.42A18.38,18.38,0,0,1,125.32,96a26.52,26.52,0,0,1-3.09,12A.51.51,0,0,1,121.77,108.26Z"/><path class="cls-10" d="M129.81,110.15a.58.58,0,0,1-.26-.06.52.52,0,0,1-.19-.71,31.93,31.93,0,0,0,3.95-12.18,28.71,28.71,0,0,0-1.72-13.73.52.52,0,1,1,1-.39,29.54,29.54,0,0,1,1.79,14.23,33,33,0,0,1-4.08,12.58A.5.5,0,0,1,129.81,110.15Z"/><path class="cls-10" d="M138,110.28a.58.58,0,0,1-.26-.06.52.52,0,0,1-.19-.71,33.13,33.13,0,0,0,4.28-13.88,15.6,15.6,0,0,0-1.08-7.09.52.52,0,0,1,.26-.69.54.54,0,0,1,.69.27,16.54,16.54,0,0,1,1.16,7.56A34.18,34.18,0,0,1,138.47,110,.5.5,0,0,1,138,110.28Z"/><path class="cls-2" d="M116,164.66a.54.54,0,0,1-.34-.12,8.23,8.23,0,0,0-5.43-1.95,8.43,8.43,0,0,0-5.36,1.85.52.52,0,1,1-.67-.79,9.44,9.44,0,0,1,6-2.1,9.27,9.27,0,0,1,6.11,2.2.53.53,0,0,1,.06.74A.56.56,0,0,1,116,164.66Z"/><path class="cls-2" d="M104.87,156.53a.55.55,0,0,1-.42-.2.52.52,0,0,1,.1-.73,8.72,8.72,0,0,1,4.33-1.77,11.21,11.21,0,0,1,6.6,1.43.51.51,0,0,1,.21.7.51.51,0,0,1-.7.21,10.07,10.07,0,0,0-6-1.31,7.68,7.68,0,0,0-3.82,1.57A.5.5,0,0,1,104.87,156.53Z"/><path class="cls-2" d="M89.15,155.74a.54.54,0,0,1-.21-.05.52.52,0,0,1-.26-.69,9.33,9.33,0,0,1,4.63-4.55,8.74,8.74,0,0,1,8.42.32.53.53,0,0,1,.15.72.52.52,0,0,1-.72.14,7.74,7.74,0,0,0-7.41-.24,8.23,8.23,0,0,0-4.12,4A.54.54,0,0,1,89.15,155.74Z"/><path class="cls-2" d="M86.6,150.89a.5.5,0,0,1-.49-.68A11.1,11.1,0,0,1,90,144.66a9.44,9.44,0,0,1,9.83-.62.52.52,0,0,1,.24.69.52.52,0,0,1-.69.25,8.41,8.41,0,0,0-8.77.52,10.07,10.07,0,0,0-3.48,5A.5.5,0,0,1,86.6,150.89Z"/><path class="cls-9" d="M100.71,78a4.78,4.78,0,0,1-4.11-2.27.51.51,0,0,1,.17-.71.53.53,0,0,1,.72.17A3.74,3.74,0,0,0,100.71,77a3.5,3.5,0,0,0,3.13-1.82.51.51,0,0,1,.7-.21.51.51,0,0,1,.21.7A4.5,4.5,0,0,1,100.71,78Z"/><path class="cls-5" d="M100.22,52.82a.49.49,0,0,1-.41-.21.52.52,0,0,1,.11-.73c7.35-5.38,14.89-12.35,15-23.17a.52.52,0,0,1,.52-.52h0a.53.53,0,0,1,.52.53c-.11,11.28-7.85,18.46-15.42,24A.5.5,0,0,1,100.22,52.82Z"/><path class="cls-5" d="M78.11,63.87H72.87a.52.52,0,1,1,0-1h5.24a.52.52,0,0,1,0,1Z"/><path class="cls-5" d="M102,63.87H99.56a.52.52,0,0,1,0-1H102a.52.52,0,0,1,0,1Z"/><path class="cls-5" d="M127.19,63.87h-3.73a.52.52,0,0,1,0-1h3.73a.52.52,0,0,1,0,1Z"/><path class="cls-5" d="M64.27,157.47c-3,0-6.67-1.29-6.67-7.45,0-.16,0-.34,0-.51a.51.51,0,0,1,.54-.51.52.52,0,0,1,.5.54c0,.16,0,.33,0,.48,0,4.32,1.84,6.41,5.63,6.41a23.54,23.54,0,0,0,8.65-2.22.52.52,0,1,1,.4.95A24.38,24.38,0,0,1,64.27,157.47Z"/><path class="cls-5" d="M139.32,158.28a16.28,16.28,0,0,1-5.77-.94.52.52,0,0,1,.37-1,15.11,15.11,0,0,0,5.4.87c2.25,0,7.56-.57,8.07-5.91a.52.52,0,0,1,.57-.46.51.51,0,0,1,.46.56C148,155.72,144.61,158.28,139.32,158.28Z"/><path class="cls-5" d="M93,98.1a.45.45,0,0,1-.16,0c-14.42-4.7-17.45-20.23-17.45-32.42A89.45,89.45,0,0,1,76.86,50a.52.52,0,0,1,.61-.42.52.52,0,0,1,.41.61,88.46,88.46,0,0,0-1.45,15.46c0,11.85,2.9,26.92,16.73,31.44a.52.52,0,0,1,.34.65A.53.53,0,0,1,93,98.1Z"/><path class="cls-5" d="M111.43,96.27a.52.52,0,0,1-.51-.45.51.51,0,0,1,.44-.58c3.12-.44,6.31-3.39,9-8.3a34.06,34.06,0,0,0,4-12.57c0-.69.08-1.38.09-2.06a.51.51,0,0,1,.52-.51.53.53,0,0,1,.52.53c0,.69,0,1.4-.09,2.11-.44,6.88-6.2,20.74-13.9,21.83Z"/><path class="cls-3" d="M73.38,60.72a3.67,3.67,0,0,0-3.54-3c-2.91.21-3.72,5.77-3.46,9.32.37,5.11,2.71,10.25,6.7,10.43"/><path class="cls-5" d="M73.88,81.79a.51.51,0,0,1-.51-.42,61.73,61.73,0,0,1-1-15.18,48.34,48.34,0,0,1,1.3-8.6.51.51,0,0,1,.62-.37.52.52,0,0,1,.38.63,46.88,46.88,0,0,0-1.26,8.4,60.08,60.08,0,0,0,1,14.92.52.52,0,0,1-.42.61Z"/><path class="cls-5" d="M120.43,66.45a6.94,6.94,0,0,1-4.63,6.32,10.06,10.06,0,0,1-2.92.43,10.24,10.24,0,0,1-5.68-1.71h0a6.55,6.55,0,0,1-2.45-5c0-3.83,3.51-6.93,7.84-6.93S120.43,62.62,120.43,66.45Z"/><path class="cls-5" d="M96.49,66.49a7,7,0,0,1-4.63,6.32,10.24,10.24,0,0,1-8.6-1.28,6.58,6.58,0,0,1-2.46-5c0-3.83,3.51-6.93,7.84-6.93S96.49,62.66,96.49,66.49Z"/><path class="cls-7" d="M55.71,102.77c0,2.25,0,4.5.06,6.76l-5.67-5.62c-.77.07-1.57.1-2.4.1-11,0-22.42-7.3-22.42-18.21,0-9.67,6-17.35,20.3-17.35,3.52,0,9.13.54,12.35,2.11a20.81,20.81,0,0,1,7.56,6.11,13.83,13.83,0,0,1,2.64,8.38C68.13,91,65,99.59,55.71,102.77Z"/><path class="cls-11" d="M146.85,65.26l-.06,6.36,5.45-5.28c.73.06,1.5.09,2.29.09,10.58,0,21.51-6.88,21.51-17.16,0-9.11-5.76-16.35-19.47-16.35-3.38,0-8.76.51-11.85,2a19.8,19.8,0,0,0-7.25,5.75,12.85,12.85,0,0,0-2.53,7.9A17.54,17.54,0,0,0,146.85,65.26Z"/><path class="cls-12" d="M135.82,143.17v7.49a81,81,0,0,0,5.79-6.78h.68c7.86,0,13.47-2.22,17.11-5.55a15.48,15.48,0,0,0,5.28-11.61c0-12.47-9.33-16.84-21.15-16.84-13.73,0-20.43,8.6-20.43,17.24a20.47,20.47,0,0,0,2.85,9.78,11.77,11.77,0,0,0,3.7,3.63A19.07,19.07,0,0,0,135.82,143.17Z"/><rect class="cls-13" x="36.97" y="75.88" width="20.46" height="20.41" rx="4.15"/><path class="cls-7" d="M41.17,75.88a4.38,4.38,0,0,0-.52,0V80H37v1.7h3.68V85H37v1.7h3.68v3.25H37v1.7h3.68v4.61a3,3,0,0,0,.52,0h1.17V75.88Z"/><path class="cls-7" d="M53.76,86.69h3.67V85H53.76V81.74h3.67V80H53.76V75.92a4.73,4.73,0,0,0-.53,0H52.06V96.29h1.17a3.15,3.15,0,0,0,.53,0V91.64h3.67v-1.7H53.76Z"/><rect class="cls-7" x="145.24" y="39.09" width="20.46" height="20.46" rx="4.15"/><polygon class="cls-13" points="163.98 55.71 157.91 46.33 153.6 52.99 151.23 49.34 147.1 55.71 163.98 55.71"/><rect class="cls-14" x="134.27" y="116.02" width="20.46" height="20.46" rx="4.15"/><rect class="cls-13" x="137.93" y="129.85" width="6.28" height="3.14"/><rect class="cls-13" x="137.93" y="124.77" width="11.41" height="3.14"/><rect class="cls-13" x="137.93" y="119.69" width="9.1" height="3.14"/><path class="cls-5" d="M125.23,78.43H125l-.8-.06a.5.5,0,0,1-.45-.57.52.52,0,0,1,.57-.46,5.78,5.78,0,0,0,.71,0c2.71.07,4.84-1.39,6.34-4.35a21.55,21.55,0,0,0,2-8.61c.06-2.56-.66-7.43-3.89-7.52A4.45,4.45,0,0,0,126.77,58a.53.53,0,0,1-.73-.11.51.51,0,0,1,.11-.72,5.35,5.35,0,0,1,3.34-1.27c1.74.05,3.11,1.12,4,3.11a13.42,13.42,0,0,1,.92,5.48C134.25,69.68,132.15,78.43,125.23,78.43Z"/></svg>
