<svg width="200" height="200" viewBox="0 0 200 200" fill="none" xmlns="http://www.w3.org/2000/svg">
<path opacity="0.37" d="M156.525 108.556L158.021 108.542H158.734L159.354 108.556C159.56 108.556 159.774 108.57 159.945 108.577C167.896 109.004 173.282 113.944 175.933 123.254C178.961 133.895 178.904 145.589 178.847 155.895C178.847 157.241 178.833 158.572 178.833 159.888C178.833 168.871 175.32 174.33 168.395 176.11C167.768 176.273 167.113 176.409 166.393 176.515C166.193 176.544 165.973 176.572 165.752 176.594C165.303 176.65 164.904 176.7 164.498 176.729C164.284 176.743 164.077 176.757 163.864 176.764L163.572 176.779C163.272 176.793 162.973 176.807 162.674 176.814C162.467 176.814 162.254 176.814 162.04 176.814H160.964C160.743 176.814 159.967 176.786 159.967 176.786C159.753 176.786 159.539 176.772 159.325 176.764L156.632 176.65L155.834 176.629C155.834 176.629 154.238 176.715 154.238 176.722C138.308 176.992 122.406 178.046 106.482 178.608C94.3986 179.035 80.0497 181.22 70.7378 171.504C69.0635 169.761 68.2157 167.704 65.2162 168.373C61.3119 169.241 62.4447 174.124 60.9486 176.764C58.5476 180.992 52.0214 179.419 47.9248 179.248C46.0367 179.17 43.9492 179.526 42.1467 179.362C38.0572 178.999 39.4678 174.601 39.361 172.003C38.5986 154.806 38.8124 137.489 39.019 120.741C39.133 111.403 39.2541 101.751 39.2042 92.1852V92.057L39.3396 87.6583C39.5106 82.5977 40.1447 79.2168 40.6505 76.5049L40.736 76.0281C41.2989 73.0102 42.1467 70.0421 43.2795 67.1879C44.2271 64.7964 46.6708 61.8924 47.0841 59.4368C47.8464 54.9171 42.2678 54.6323 39.3681 54.0558C33.9819 52.9882 26.8074 50.44 23.2023 44.39C21.6563 41.7921 20.1744 37.5001 21.9413 31.7918C23.2451 27.5781 27.2562 20.5103 39.4465 20.5103C43.8637 20.5103 48.3024 21.4 51.8647 22.1188C52.8621 22.3181 53.7883 22.5032 54.6077 22.6456C57.0657 23.0655 58.8824 23.2577 60.4997 23.2577C62.2809 23.2577 63.8839 23.0228 65.5297 22.5246C70.2676 21.0868 75.4258 20.3252 80.4344 20.3252C82.9209 20.3252 85.3646 20.5103 87.6873 20.8804C94.42 21.9551 101.929 24.8093 107.757 28.5176C109.624 29.7063 111.291 31.0159 112.908 32.29C114.754 33.742 116.499 35.1157 118.223 36.041C119.67 36.8097 121.921 37.1869 124.308 37.5927C126.381 37.9414 128.526 38.2973 130.72 38.9806C131.34 39.1728 132.024 39.3436 132.758 39.5215C135.878 40.2831 140.16 41.3365 143.523 45.479C143.993 46.0556 144.428 46.6606 144.827 47.2798C147.783 51.8992 148.474 57.3584 146.722 62.2625C144.043 69.7432 136.32 70.4976 132.608 70.8677L132.116 70.9176C131.475 70.9816 130.813 71.0172 130.15 71.0172C123.439 71.0172 116.578 68.1417 111.042 64.711C105.506 61.2802 100.597 67.0171 96.2867 70.1489C94.3132 71.5795 90.0384 72.1062 90.1025 75.2309C90.1595 78.1278 95.8877 81.7578 97.9182 83.5372C102.799 87.822 105.663 82.4268 109.232 79.9926C119.506 72.9888 136.099 85.7223 123.852 94.3845C120.717 96.5981 116.342 96.6337 113.115 98.7832C108.349 101.958 111.241 106.221 115.63 108.428C119.228 110.243 125.911 109.374 129.879 109.381L130.057 109.36L151.901 108.663L153.633 108.613L156.497 108.556H156.525Z" fill="#FF8D40"/>
<path d="M107.914 90.8551C108.32 90.8337 108.726 90.7839 109.132 90.7625C109.317 90.7554 109.51 90.7554 109.695 90.7625C109.852 90.7768 110.03 90.8124 110.222 90.8835L109.902 90.1006C109.816 90.2643 109.723 90.4209 109.617 90.5775C109.588 90.6202 109.552 90.6629 109.524 90.7056C109.56 90.6629 109.524 90.7056 109.51 90.727C109.453 90.7981 109.396 90.8622 109.339 90.9334C109.096 91.2038 108.833 91.4458 108.562 91.6807C108.021 92.1505 107.451 92.5847 106.966 93.1185C106.695 93.4174 106.802 93.8943 107.201 94.0082C107.778 94.179 108.384 94.2715 108.982 94.3214C109.581 94.3712 110.158 94.3926 110.742 94.3427C111.02 94.3214 111.291 94.115 111.277 93.8089C111.262 93.5384 111.041 93.2466 110.742 93.2751C110.179 93.3249 109.609 93.3107 109.039 93.2608C108.719 93.2324 108.583 93.2181 108.284 93.1612C108.014 93.1114 107.75 93.0544 107.486 92.9761L107.721 93.8658C108.22 93.3249 108.804 92.8765 109.353 92.3925C109.902 91.9085 110.464 91.3177 110.821 90.6344C110.992 90.3141 110.835 89.9654 110.5 89.8515C109.659 89.5597 108.776 89.7376 107.907 89.7803C107.629 89.7945 107.358 90.0152 107.372 90.3141C107.387 90.5917 107.607 90.8622 107.907 90.848L107.914 90.8551Z" fill="#060606"/>
<path d="M112.41 85.0323C114.989 85.0323 117.732 84.6764 120.218 85.5448L119.983 84.655C118.95 85.4593 117.717 86.0145 116.592 86.6693C115.523 87.2886 114.383 87.979 113.692 89.0324C113.457 89.3883 113.77 89.8154 114.155 89.8367C116.684 89.9862 119.214 90.2353 121.729 90.5271C122.413 90.6054 122.405 89.5378 121.729 89.4595C119.207 89.1676 116.684 88.9185 114.155 88.7691L114.618 89.5734C115.267 88.584 116.478 87.9648 117.482 87.3953C118.587 86.769 119.741 86.1996 120.745 85.4166C121.087 85.1462 120.845 84.6408 120.51 84.5269C117.931 83.6301 115.096 83.9789 112.417 83.9789C111.726 83.9789 111.726 85.0465 112.417 85.0465L112.41 85.0323Z" fill="#060606"/>
<path d="M130.369 116.505C126.03 116.505 121.684 116.448 117.381 115.843C114.318 115.409 109.907 115.395 109.423 119.366C109.573 118.527 109.843 118 110.021 117.196C110.228 116.249 110.941 115.231 110.043 114.192C107.563 111.338 105.348 116.05 104.692 117.9C105.661 116.534 106.26 114.697 106.281 113.017C106.302 111.146 105.034 109.971 104.92 108.192L103.574 101.914L101.828 96.4902L50.082 110.434L51.4357 116.05L55.1191 129.409L58.4107 140.057L61.7023 147.026L64.2529 150.948C70.9287 163.645 83.2186 172.08 101.351 170.905L107.863 171.048C110.862 171.034 113.862 170.984 116.861 170.927C125.51 170.77 134.523 170.671 143.151 169.71L147.027 169.802C150.254 169.881 152.876 169.496 155.249 169.51C165.052 169.582 168.7 157.987 169.911 149.908C170.723 144.513 170.916 138.926 170.673 133.481C170.538 130.427 170.545 126.705 169.498 123.815C166.292 114.975 158.362 115.587 150.774 115.815C144.077 116.014 137.359 116.462 130.654 116.462" fill="#FF8D40"/>
<path d="M130.369 115.972C127.676 115.972 124.976 115.95 122.282 115.787C120.06 115.652 117.851 115.246 115.628 115.132C112.664 114.99 109.394 115.844 108.91 119.218C108.817 119.879 109.8 120.186 109.943 119.502C110.114 118.655 110.391 117.801 110.641 116.968C110.855 116.271 111.147 115.559 110.969 114.812C110.698 113.666 109.422 112.641 108.226 112.769C106.045 112.99 104.82 115.993 104.186 117.751C103.972 118.349 104.841 118.634 105.162 118.164C106.516 116.185 107.328 113.431 106.459 111.103C106.067 110.057 105.639 109.139 105.44 108.029C105.369 107.63 105.269 107.224 105.183 106.826C104.706 104.619 104.307 102.406 103.616 100.256C103.196 98.9535 102.775 97.6438 102.355 96.3413C102.269 96.0637 101.984 95.8929 101.699 95.9712C95.8358 97.5513 89.9723 99.1314 84.1087 100.712C74.8396 103.21 65.5776 105.701 56.3085 108.199C54.1853 108.769 52.0693 109.338 49.9462 109.915C49.6612 109.993 49.5044 110.292 49.5757 110.57C50.6515 115.011 51.82 119.403 53.0311 123.801C54.2494 128.207 55.5533 132.57 56.8998 136.94C57.4484 138.72 57.9756 140.357 58.7665 142.03C59.7354 144.072 60.569 146.236 61.8015 148.137C62.4855 149.19 63.2265 150.229 63.8534 151.318C64.9221 153.169 65.9694 154.991 67.2447 156.706C69.7384 160.059 72.745 162.998 76.2218 165.326C79.8767 167.781 84.0019 169.504 88.2837 170.486C90.5992 171.013 92.9646 171.333 95.3371 171.468C97.4531 171.589 99.5406 171.418 101.65 171.44C104.649 171.468 107.641 171.582 110.641 171.554C117.103 171.483 123.565 171.39 130.02 171.155C133.219 171.034 136.418 170.863 139.609 170.593C140.835 170.486 142.089 170.273 143.314 170.251C143.991 170.237 144.682 170.28 145.359 170.301C147.304 170.344 149.235 170.351 151.173 170.237C153.417 170.102 155.797 170.258 157.998 169.76C165.942 167.945 168.977 158.429 170.217 151.411C171.271 145.46 171.471 139.375 171.214 133.346C171.001 128.378 170.944 123.047 167.396 119.139C164.702 116.171 160.698 115.345 156.851 115.203C151.372 115.004 145.844 115.474 140.379 115.694C137.144 115.822 133.91 115.922 130.675 115.929C129.984 115.929 129.984 116.997 130.675 116.997C137.152 116.99 143.614 116.577 150.09 116.37C154.094 116.242 158.376 115.844 162.244 117.104C166.704 118.556 169.098 122.598 169.739 127.068C170.153 129.901 170.167 132.841 170.231 135.695C170.302 138.848 170.217 142.001 169.953 145.14C169.576 149.567 168.863 154.016 167.339 158.208C166.042 161.788 164.026 165.497 160.67 167.525C158.974 168.55 157.108 168.963 155.141 168.97C152.441 168.984 149.755 169.312 147.048 169.262C145.851 169.24 144.654 169.176 143.457 169.176C142.459 169.176 141.462 169.354 140.464 169.44C138.933 169.582 137.401 169.696 135.862 169.789C129.599 170.18 123.316 170.265 117.039 170.379C112.864 170.458 108.703 170.515 104.528 170.429C100.887 170.351 97.2394 170.614 93.613 170.258C89.1173 169.824 84.6644 168.65 80.6177 166.635C76.9057 164.792 73.5714 162.272 70.7501 159.24C69.3251 157.71 68.0356 156.051 66.8814 154.308C65.9908 152.962 65.2855 151.51 64.4091 150.165C63.6896 149.062 62.9059 147.973 62.2433 146.834C61.8443 146.151 61.5451 145.389 61.2031 144.67L59.2794 140.606C59.1868 140.414 59.1013 140.222 59.0087 140.037C58.9873 139.994 58.8591 139.702 58.9161 139.844C58.9731 139.987 58.8947 139.745 58.8804 139.716C58.8306 139.553 58.7807 139.389 58.7308 139.225C57.4769 135.182 56.1731 131.154 55.0474 127.075C53.8006 122.563 52.4897 118.072 51.3925 113.523C51.1289 112.441 50.8724 111.367 50.6088 110.285L50.2383 110.94C56.1018 109.36 61.9654 107.779 67.829 106.199C77.0981 103.701 86.3601 101.21 95.6292 98.7115C97.7524 98.1421 99.8684 97.5727 101.992 96.9961L101.336 96.626C101.927 98.4695 102.654 100.313 103.11 102.192C103.416 103.438 103.652 104.697 103.915 105.95C104.15 107.053 104.293 108.249 104.613 109.331C104.998 110.626 105.796 111.744 105.76 113.146C105.718 114.74 105.141 116.306 104.25 117.616L105.226 118.029C105.718 116.669 106.523 114.627 107.912 113.958C108.952 113.459 110.085 114.598 109.921 115.644C109.736 116.854 109.166 118.015 108.924 119.218L109.957 119.502C110.434 116.185 113.932 115.993 116.64 116.278C118.763 116.499 120.865 116.783 123.002 116.89C125.46 117.018 127.925 117.032 130.383 117.032C131.074 117.032 131.074 115.965 130.383 115.965L130.369 115.972Z" fill="#050505"/>
<path d="M59.8421 33.6702C65.0289 27.8978 79.6557 26.823 86.588 27.9262C92.3518 28.8444 98.9848 31.3783 103.958 34.5385C108.582 37.4781 111.731 41.8057 112.614 48.0906C98.2795 45.1012 83.2038 43.8484 69.0044 39.9622C66.354 39.2362 63.1836 38.5315 60.6686 37.3927C59.6426 36.9301 58.7806 35.9834 57.6406 35.6774" fill="white"/>
<path d="M60.2215 34.0474C62.5655 31.4851 66.085 30.2395 69.3766 29.421C73.0672 28.4957 76.9002 28.0971 80.7048 28.0757C84.5093 28.0544 88.2355 28.6095 91.9189 29.7128C96.5214 31.0936 101.259 33.0652 105.107 35.9834C109.082 38.9942 111.383 43.3431 112.096 48.2329L112.751 47.5781C105.292 46.0265 97.7468 44.9517 90.2304 43.7417C82.7923 42.5459 75.4468 41.1082 68.1654 39.1864C66.2917 38.6953 64.4108 38.2255 62.5869 37.5849C61.6891 37.2717 60.8199 36.9301 60.022 36.4034C59.2953 35.9194 58.6184 35.4354 57.7777 35.172C57.1223 34.9656 56.8373 35.9977 57.4927 36.2041C58.2408 36.439 58.8393 36.9016 59.4805 37.3287C60.1217 37.7557 60.8556 38.076 61.5965 38.3607C63.2138 38.98 64.8952 39.4355 66.5695 39.8768C70.1461 40.8163 73.7155 41.7488 77.3348 42.5032C84.7658 44.0549 92.2823 45.1225 99.7702 46.3254C104.017 47.0087 108.249 47.7347 112.459 48.6102C112.887 48.7027 113.179 48.3611 113.115 47.9554C112.473 43.578 110.585 39.5138 107.322 36.4746C103.781 33.172 99.0435 31.0509 94.5336 29.4494C90.5011 28.0259 86.3475 27.1219 82.0656 27.0223C78.0971 26.9298 74.086 27.2785 70.2102 28.1255C66.3344 28.9725 62.1736 30.3249 59.452 33.293C58.9889 33.7983 59.7441 34.5528 60.2072 34.0474H60.2215Z" fill="#050505"/>
<path d="M66.8534 48.6475C65.001 50.0354 61.916 52.2348 60.3272 53.9715C54.0861 60.7902 49.4479 68.2068 47.7594 77.3388C47.2678 80.0008 46.6408 83.1041 46.477 87.8943L46.3416 92.1649C46.477 119.013 45.3228 145.206 46.4912 171.705L51.3003 171.356C51.1863 165.377 50.7874 161.975 50.9085 157C51.4286 136.159 49.7187 115.262 50.652 94.4568L50.5309 90.3499C50.5309 90.3499 51.1578 80.677 51.8062 78.2641C52.8962 74.2141 53.8153 71.1678 55.3899 67.9862C57.0072 64.712 59.8427 61.2671 62.2509 58.4841C64.9297 55.3879 66.6325 55.0107 69.4824 52.0497" fill="#050505"/>
<path d="M66.5909 48.1843C65.0876 49.3089 63.5701 50.4051 62.1238 51.6008C60.5991 52.8535 59.2953 54.2842 58.02 55.7931C55.4765 58.7968 53.1824 62.0211 51.3443 65.5087C47.7891 72.2563 46.2573 79.979 45.958 87.5522C45.6802 94.62 45.8298 101.702 45.7657 108.77C45.6731 118.635 45.5092 128.493 45.4522 138.358C45.3881 149.476 45.4736 160.601 45.9652 171.711C45.9794 171.982 46.2003 172.267 46.4995 172.245C48.1026 172.131 49.7056 172.01 51.3086 171.897C51.5936 171.875 51.8501 171.669 51.843 171.363C51.7575 167.185 51.4226 163.021 51.4298 158.843C51.4298 153.754 51.5794 148.672 51.5295 143.582C51.4226 133.212 51.0236 122.842 50.931 112.471C50.8883 107.289 50.9168 102.115 51.0949 96.9332C51.1448 95.5595 51.1875 94.2214 51.1448 92.8477C51.1234 92.0149 51.0521 91.1751 51.0735 90.3423C51.1163 88.271 51.3728 86.1784 51.5651 84.1143C51.6934 82.7264 51.8287 81.3384 52.0353 79.9647C52.2705 78.3846 52.7407 76.8614 53.1895 75.3311C53.8521 73.0962 54.6073 70.8897 55.6048 68.7829C56.7376 66.4056 58.248 64.2347 59.8796 62.1777C61.4113 60.2417 62.9859 58.2487 64.8739 56.6472C66.5482 55.2308 68.3293 54.0137 69.8611 52.4407C70.3385 51.9496 69.5833 51.1951 69.1059 51.6862C67.681 53.1454 66.0637 54.3055 64.4892 55.5867C62.8291 56.932 61.4612 58.5619 60.1075 60.2061C57.2577 63.6582 54.8781 67.2668 53.3178 71.4805C52.1493 74.6549 51.1804 77.922 50.7814 81.2815C50.4679 83.9364 50.2542 86.6055 50.0689 89.2746C49.955 90.869 50.0547 92.4562 50.1046 94.0506C50.1616 96.0079 49.9763 97.9867 49.9265 99.944C49.8623 102.592 49.8338 105.24 49.8338 107.887C49.8196 118.379 50.2186 128.863 50.3896 139.347C50.4893 145.241 50.5035 151.127 50.3682 157.021C50.2613 161.811 50.6603 166.587 50.76 171.377L51.2944 170.843C49.6913 170.957 48.0883 171.078 46.4853 171.192L47.0196 171.726C46.1647 152.28 46.5565 132.813 46.7703 113.354C46.8557 105.332 46.7061 97.2962 46.9555 89.2818C47.1621 82.5911 48.0527 75.7226 50.6318 69.4946C52.3702 65.3023 54.8211 61.4303 57.6567 57.9C58.9818 56.2487 60.3426 54.576 61.9243 53.1667C63.506 51.7574 65.3584 50.4335 67.111 49.1168C67.6525 48.711 67.1253 47.7858 66.5696 48.1915L66.5909 48.1843Z" fill="#050505"/>
<path d="M138.85 51.13C138.593 50.7314 138.315 50.3471 138.016 49.977C135.587 46.9875 132.138 46.8808 128.64 45.7918C118.737 42.724 108.242 42.8593 98.097 41.087C84.4818 38.7097 71.2229 34.7309 57.8927 31.1436C51.1885 29.3428 31.8309 24.0188 28.7744 33.9053C26.2523 42.055 34.0965 45.7633 40.7865 47.0943C49.7992 48.8879 60.3294 48.8239 67.3827 42.0408C65.8723 47.6566 67.226 52.5251 70.9023 56.9594C75.1984 62.141 81.8742 64.6607 88.6212 64.8458C97.2349 65.0878 99.3081 54.4326 99.1799 47.8132C99.1799 47.8559 102.343 49.7492 102.749 50.0552C104.374 51.2866 105.898 52.6461 107.444 53.9771C110.444 56.5679 113.579 59.2442 117.426 60.4684C121.836 61.8706 126.674 64.3262 131.419 63.8493C134.611 63.5219 138.814 63.2941 140.04 59.8847C141.123 56.8526 140.524 53.7493 138.85 51.1371V51.13Z" fill="#FF8D40"/>
<path d="M139.312 50.8601C137.673 48.369 135.457 47.0451 132.608 46.2835C129.409 45.4222 126.217 44.4756 122.968 43.8208C116 42.4257 108.883 42.0912 101.844 41.1303C87.1312 39.1302 72.825 34.6176 58.5259 30.767C54.9992 29.8132 51.4582 28.9021 47.8532 28.29C43.8349 27.6138 39.5886 27.1583 35.5561 27.9697C32.0437 28.6744 29.0513 30.6602 28.1109 34.2689C27.5338 36.4753 27.6406 38.817 28.7663 40.8385C29.8208 42.7318 31.5948 44.1411 33.4828 45.1589C37.9215 47.5575 43.3077 48.3476 48.2878 48.5825C53.8521 48.8458 59.6729 47.9988 64.4678 44.9952C65.6505 44.2549 66.7477 43.3866 67.7665 42.4257L66.8759 41.9061C65.6932 46.4329 66.306 51.0025 68.8067 54.9813C71.2433 58.8533 74.8697 61.7359 79.0946 63.4584C81.2107 64.3196 83.4335 64.8677 85.692 65.1595C87.6442 65.4158 89.7032 65.5937 91.6126 65.0101C94.6477 64.0848 96.6711 61.5224 97.8609 58.6967C99.3001 55.3016 99.7845 51.4936 99.7204 47.828L98.8085 48.2052C99.4639 48.8672 100.547 49.3085 101.331 49.7925C102.841 50.732 104.18 51.8708 105.527 53.031C108.733 55.7998 111.918 58.8106 115.872 60.469C117.967 61.3445 120.182 62.0278 122.32 62.7751C124.414 63.5082 126.559 64.1631 128.782 64.3766C130.577 64.5545 132.415 64.3339 134.196 64.0776C135.742 63.8499 137.36 63.4798 138.649 62.5545C142.326 59.9138 141.378 54.1841 139.312 50.8673C138.949 50.2836 138.022 50.8174 138.386 51.4082C139.519 53.2232 140.195 55.2944 140.024 57.4582C139.882 59.1949 139.305 60.9103 137.759 61.864C136.455 62.6683 134.873 62.9317 133.377 63.1168C131.575 63.3374 129.793 63.4869 127.991 63.2093C125.932 62.8961 123.951 62.227 121.999 61.5295C120.047 60.832 118.095 60.2555 116.221 59.4583C112.424 57.8497 109.36 54.9243 106.282 52.2694C104.986 51.1448 103.689 49.9989 102.228 49.0878C101.673 48.7391 101.11 48.3974 100.554 48.0558C100.319 47.9134 100.084 47.7639 99.8487 47.6216C99.7703 47.5718 99.4212 47.3013 99.5637 47.4508C99.2431 47.1234 98.6446 47.3654 98.6517 47.828C98.7016 50.789 98.3739 53.7926 97.4833 56.6254C96.6212 59.38 95.0965 62.1915 92.4177 63.5438C90.9643 64.2769 89.3826 64.3766 87.7796 64.2841C85.5923 64.1559 83.4193 63.7787 81.3246 63.1239C77.2422 61.8498 73.5446 59.4939 70.9013 56.1201C67.7166 52.0559 66.5909 47.2017 67.8947 42.1908C68.0301 41.6712 67.3889 41.3082 67.0042 41.6712C62.9075 45.5504 57.4572 47.2586 51.9 47.5219C46.8629 47.7568 41.4553 47.1447 36.696 45.4294C32.6706 43.9774 28.5241 41.1018 28.8376 36.3187C28.9658 34.4539 29.6284 32.5677 30.9963 31.2581C32.1862 30.1264 33.7464 29.4929 35.3281 29.1157C39.1398 28.2188 43.2578 28.6317 47.0766 29.2438C50.5035 29.7918 53.8735 30.6246 57.2292 31.5214C70.3955 35.0589 83.4905 38.995 96.9276 41.4221C103.546 42.6179 110.258 43.0236 116.919 43.9062C120.332 44.3617 123.73 44.9596 127.05 45.8849C128.461 46.2764 129.865 46.6963 131.29 47.0451C132.636 47.3796 134.004 47.7212 135.244 48.3832C136.576 49.095 137.566 50.1484 138.393 51.4011C138.77 51.9705 139.697 51.4367 139.319 50.8601H139.312Z" fill="#060606"/>
<path d="M66.562 67.8366C65.3437 71.4666 63.6409 75.0966 62.2017 78.6839C60.5132 82.8833 59.3518 87.1966 57.6491 91.4032C56.217 94.9407 54.728 98.4283 53.1891 101.916C52.6832 103.062 50.6669 109.318 50.0898 110.436L101.836 96.4923C97.8462 92.2786 88.9119 86.1219 84.4875 82.3709C78.5812 77.3671 72.7176 72.1428 66.7543 67.2529" fill="white"/>
<path d="M66.041 67.6933C64.8797 71.1169 63.3764 74.4053 62.0013 77.7506C60.6548 81.0318 59.6003 84.4198 58.4319 87.7723C56.4655 93.3881 53.694 98.6908 51.749 104.307C51.0793 106.243 50.5378 108.328 49.6259 110.172C49.4264 110.577 49.7541 111.083 50.2315 110.955C56.095 109.374 61.9586 107.794 67.8222 106.214C77.0913 103.716 86.3533 101.225 95.6224 98.7264C97.7455 98.1569 99.8616 97.5875 101.985 97.011C102.384 96.9042 102.498 96.406 102.22 96.1213C98.7002 92.4415 94.4469 89.4449 90.4072 86.363C85.5838 82.676 81.0169 78.7115 76.4216 74.7469C73.3509 72.0992 70.273 69.4585 67.1382 66.889C66.611 66.4549 65.8486 67.2093 66.383 67.6435C71.9402 72.2059 77.3264 76.9677 82.7981 81.6368C86.8306 85.0747 91.1339 88.1709 95.2804 91.4663C97.4249 93.1675 99.5695 94.8971 101.465 96.8829L101.7 95.9932C95.8361 97.5733 89.9726 99.1534 84.109 100.734C74.8399 103.232 65.5779 105.723 56.3088 108.221C54.1856 108.791 52.0696 109.36 49.9465 109.937L50.5521 110.72C51.3287 109.147 51.8131 107.403 52.3831 105.751C53.1027 103.673 53.8793 101.68 54.7556 99.6659C56.1877 96.3633 57.6411 93.0465 58.895 89.6656C60.1418 86.2918 61.1606 82.8326 62.4644 79.4731C63.9606 75.6295 65.7489 71.907 67.0741 67.9994C67.2949 67.3446 66.2619 67.067 66.041 67.7147V67.6933Z" fill="#050505"/>
<path d="M76.438 113.452C77.5067 115.189 79.986 115.701 81.8527 115.965C84.1896 116.292 86.4837 116.022 88.728 115.303C91.1218 114.534 92.9457 113.303 94.2424 111.139C95.5391 108.975 96.5009 106.527 96.3798 104.092C96.3442 103.409 95.2755 103.402 95.3111 104.092C95.418 106.27 94.5131 108.534 93.4444 110.391C92.9885 111.181 92.4684 111.986 91.7702 112.584C90.8368 113.388 89.6185 113.9 88.4501 114.271C86.4908 114.897 84.4674 115.196 82.4227 114.968C80.8196 114.79 78.2975 114.42 77.3642 112.911C77.0008 112.327 76.0818 112.861 76.438 113.452Z" fill="#060606"/>
<path d="M80.9028 79.8431C77.8606 81.3235 73.9065 82.0068 70.6434 82.8965C67.2806 83.8147 63.4475 85.3094 59.9707 85.4589L60.2842 83.6368L65.3997 71.0599L66.9528 67.4014L77.084 76.0707L80.7461 79.3306L81.4514 79.6793L80.9028 79.8431Z" fill="#060606"/>
<path d="M80.6325 79.38C77.4763 80.8818 73.9853 81.437 70.6367 82.3409C67.1171 83.2947 63.6546 84.7182 59.9711 84.9175L60.4841 85.5937C60.6337 84.7253 60.7406 83.921 61.0683 83.1096C61.624 81.7501 62.1726 80.3907 62.7284 79.0312C63.7899 76.4261 64.8372 73.8211 65.9059 71.2231C65.8133 71.4509 65.9843 71.038 66.0342 70.9242L66.54 69.7355C66.8321 69.0451 67.1242 68.3547 67.4164 67.6643L66.5756 67.771C70.2733 70.9313 74.0209 74.0488 77.6544 77.2802C78.773 78.2767 79.8274 79.4511 81.174 80.1273L81.3022 79.1522L80.7536 79.3159C80.0982 79.5081 80.376 80.5401 81.0386 80.348L81.5872 80.1843C82.0004 80.0633 82.1429 79.4227 81.7155 79.2091C81.1312 78.9173 81.1027 78.9244 80.5969 78.476C79.9699 77.9137 79.343 77.3585 78.7089 76.7962C78.1318 76.2838 77.5547 75.7642 76.9705 75.2659C74.5481 73.1947 72.1257 71.1163 69.7034 69.0451C68.9125 68.3689 68.1217 67.6927 67.3309 67.0166C67.1029 66.8173 66.6398 66.7817 66.4902 67.1233C64.3314 72.1982 62.2724 77.3158 60.1991 82.4263C59.8073 83.3943 59.6363 84.2556 59.451 85.3019C59.394 85.6221 59.5935 85.9994 59.964 85.978C63.7472 85.7716 67.2881 84.341 70.9145 83.3587C74.3629 82.4263 77.9252 81.8284 81.1669 80.2839C81.7867 79.9921 81.2452 79.0668 80.6254 79.3586L80.6325 79.38Z" fill="#060606"/>
<path d="M153.774 115.738C145.952 115.938 133.277 116.471 130.662 116.471Z" fill="#FF8D40"/>
<path d="M153.775 115.203C146.073 115.403 138.365 115.922 130.663 115.936C129.972 115.936 129.972 117.004 130.663 117.004C138.365 116.99 146.073 116.47 153.775 116.271C154.459 116.257 154.466 115.189 153.775 115.203Z" fill="#050505"/>
<path d="M157.024 168.793C152.707 167.476 150.619 160.551 149.978 156.152C148.938 149.02 149.508 141.589 150.641 134.5C151.089 131.675 155.521 116.265 161.356 116.343C162.054 116.35 164.968 117.226 166.586 118.756C168.445 120.514 170.511 124.108 170.846 131.44C171.117 137.426 170.996 143.525 170.212 149.469C169.435 155.383 167.811 164.8 162.047 167.989C160.109 169.064 158.449 169.234 157.024 168.8V168.793Z" fill="#FF8D40"/>
<path d="M157.167 168.281C153.54 167.099 151.973 162.473 151.125 159.156C149.892 154.345 149.807 149.227 150.078 144.294C150.298 140.401 150.612 136.387 151.616 132.6C152.386 129.717 153.376 126.863 154.637 124.151C155.763 121.731 157.238 118.721 159.66 117.347C160.821 116.685 161.84 116.884 163.051 117.326C164.619 117.895 166.037 118.756 167.07 120.08C169.392 123.041 170.048 127.127 170.276 130.771C170.625 136.408 170.504 142.131 169.884 147.747C169.407 152.046 168.73 156.437 167.155 160.487C166.386 162.473 165.338 164.43 163.828 165.954C162.132 167.669 159.603 168.964 157.159 168.281C156.497 168.096 156.212 169.128 156.874 169.313C161.114 170.502 164.939 167.043 166.863 163.619C168.879 160.017 169.784 155.854 170.411 151.818C171.28 146.223 171.594 140.565 171.487 134.906C171.402 130.273 171.245 125.312 169.008 121.134C168.352 119.916 167.504 118.763 166.4 117.916C165.075 116.899 163.101 115.902 161.391 115.817C158.634 115.689 156.561 118.55 155.3 120.621C153.519 123.539 152.265 126.799 151.246 130.045C150.213 133.326 149.714 136.629 149.351 140.045C148.738 145.782 148.581 151.697 149.636 157.398C150.32 161.121 151.624 165.576 154.666 168.089C155.328 168.637 156.062 169.05 156.882 169.313C157.537 169.527 157.815 168.495 157.167 168.281Z" fill="#050505"/>
<path d="M160.829 148.415C162.197 148.173 162.846 145.924 163.238 144.707C164 142.308 165.482 136.166 161.998 135.07C158.92 134.102 158.072 140.657 157.958 142.408C157.851 144.031 158.03 147.355 159.754 148.216C160.16 148.415 160.516 148.472 160.837 148.415H160.829Z" fill="#060606"/>
<path d="M160.971 148.927C162.318 148.621 162.952 147.155 163.372 145.981C163.743 144.948 164.056 143.895 164.291 142.82C164.776 140.657 165.26 137.724 163.857 135.781C163.265 134.962 162.239 134.35 161.199 134.436C160.159 134.521 159.482 135.276 159.005 136.087C157.957 137.874 157.594 140.144 157.43 142.18C157.323 143.511 157.395 144.906 157.758 146.194C158.157 147.582 159.169 149.127 160.829 148.934C161.505 148.856 161.513 147.788 160.829 147.867C158.428 148.144 158.385 143.909 158.485 142.393C158.591 140.778 158.891 139.105 159.468 137.596C159.731 136.906 160.116 136.051 160.786 135.667C161.491 135.261 162.375 135.667 162.866 136.236C164.106 137.688 163.721 140.201 163.393 141.909C163.201 142.891 162.937 143.859 162.638 144.813C162.318 145.824 161.89 147.618 160.686 147.895C160.016 148.052 160.301 149.077 160.971 148.927Z" fill="#060606"/>
</svg>
