<svg width="173" height="160" viewBox="0 0 173 160" fill="none" xmlns="http://www.w3.org/2000/svg">
<path opacity="0.37" d="M96.5474 135.286C95.095 136.425 94.892 138.64 93.8335 140.652C92.7074 142.8 90.2458 145.699 88.4674 147.342C84.9104 150.628 79.2674 151.852 74.4304 152.135C69.9258 152.4 65.3597 151.237 61.5935 148.726C59.5751 147.378 58.5351 145.237 56.7935 143.84C54.4858 141.988 50.7812 142.406 47.9997 142.289C43.6304 142.098 43.212 141.095 40.7012 138.314C37.7412 135.04 32.4674 137.163 33.2058 130.991C33.7166 126.757 38.1781 126.345 41.852 126.178C48.5227 125.871 53.7597 125.526 56.972 118.88C60.5043 111.582 61.2858 103.495 58.652 95.7908C55.4889 86.5416 43.4089 83.2 37.5074 76.117C36.1043 74.4308 34.8366 72.48 34.4181 70.2831C33.9012 67.6124 35.2427 65.3785 34.4181 62.7754C33.1443 58.7508 32.3751 54.6462 27.5874 53.9693C23.6058 53.4093 19.5935 55.2431 15.6181 55.1877C6.94121 55.0708 -2.61571 43.4954 7.07659 37.4708C3.15044 31.76 7.70429 22.9231 13.1504 20.0554C15.1074 19.0277 18.1104 18.1047 20.2581 18.6339C21.8089 19.0154 23.1197 20.9231 24.5166 21.0831C26.812 21.3477 28.8304 19.0216 31.2427 19.0462C33.6551 19.0708 36.1781 20.4677 37.2858 22.5047C38.5658 24.8554 37.9627 28.0985 39.452 30.4062C42.4427 35.0524 43.5197 30.3324 44.7812 27.2985C48.055 19.44 60.5535 12.117 68.055 18.2647C71.4643 10.8124 80.7135 5.51389 88.1104 10.5847C93.0027 9.07697 96.6335 10.0308 100.19 13.04C109.446 12.7262 115.144 16.5724 121.975 21.2308C127.458 25.0708 131.821 30.1477 137.114 34.0862C142.067 37.7724 148.258 41.6124 151.994 46.5847C153.729 48.8924 154.147 50.3077 152.947 52.9047C150.726 57.7231 152.43 62.3754 153.698 67.2677C155.31 73.477 156.252 79.8523 156.578 86.2585C157.255 99.4216 155.366 112.683 151.44 125.255C151.064 126.462 152.03 129.188 152.043 130.566C152.19 143.065 141.532 152.997 129.064 152.154C123.107 151.748 117.667 148.72 114.215 143.84C112.424 141.305 111.79 136.548 109.058 135.077C105.477 133.151 103.415 133.963 99.5812 134.123C98.5104 134.166 97.1012 134.843 96.535 135.286H96.5474Z" fill="#FF6700"/>
<path d="M48.3018 40.7873C51.9018 39.0273 54.5848 41.0027 58.0618 41.3596C61.311 41.6981 64.3141 41.9319 67.4402 43.1073C71.3602 44.5781 72.7079 48.1965 71.1141 51.9627C68.5787 57.9627 61.7479 61.8212 55.5694 62.8735C50.0679 63.8088 39.9325 61.8335 39.8218 54.615C39.7787 51.6119 41.4156 51.5688 43.4341 50.135C42.6464 45.6365 44.2464 42.775 48.2956 40.7935L48.3018 40.7873Z" fill="#FEFEFE"/>
<path d="M48.5351 41.1874C51.4581 39.8213 54.1351 41.1628 57.0643 41.6798C60.1781 42.2336 63.3104 42.2459 66.3566 43.2182C68.8612 44.0182 71.0704 45.6305 71.292 48.449C71.4951 50.9844 70.0674 53.4705 68.4858 55.3475C65.2243 59.2182 60.2089 61.6982 55.2428 62.4613C51.5751 63.0213 47.3166 62.4121 44.092 60.529C42.3074 59.489 40.8489 57.9136 40.4181 55.8459C40.1843 54.7321 40.1228 53.2613 40.9289 52.3628C41.6489 51.5567 42.7997 51.1444 43.6735 50.5351C43.8581 50.4059 43.9197 50.2336 43.8828 50.0121C43.5812 48.2213 43.5997 46.3074 44.492 44.6767C45.3781 43.0582 46.9166 41.9936 48.5289 41.1936C49.0581 40.929 48.5966 40.1351 48.0612 40.3936C46.2581 41.2921 44.5474 42.5351 43.612 44.3628C42.6704 46.1967 42.6581 48.2644 42.9904 50.2582L43.1997 49.7351C42.3012 50.3628 41.2181 50.7936 40.4181 51.5567C39.6366 52.2951 39.3781 53.3228 39.3597 54.369C39.3166 56.4798 40.1904 58.4674 41.7166 59.9136C44.8058 62.8367 49.7043 63.7474 53.8212 63.5259C59.0766 63.2367 64.5535 60.7259 68.2397 56.9844C70.1043 55.089 71.7904 52.609 72.1535 49.9259C72.492 47.409 71.452 45.0151 69.3535 43.5813C67.8704 42.5721 66.012 42.0921 64.2766 41.7351C62.3197 41.329 60.3258 41.1505 58.3381 40.9413C56.5104 40.7444 54.7997 40.0982 52.9966 39.7844C51.1935 39.4705 49.6489 39.6613 48.0551 40.4059C47.5197 40.6582 47.9874 41.4521 48.5228 41.2059L48.5351 41.1874Z" fill="#060606"/>
<path d="M61.4393 53.7849C60.6208 52.5357 61.1746 50.6772 61.4146 49.3234C58.9654 48.1541 54.5162 45.8464 55.87 42.3757C56.6146 40.4618 58.5839 40.388 59.8146 41.3972C61.1254 42.4741 61.9439 43.6618 63.4085 44.6218C64.627 45.4218 65.9746 46.2464 66.947 47.3111C65.4023 49.7541 68.6085 52.5849 67.7469 54.6711C67.3777 55.5634 62.2639 55.7357 61.2608 55.748" fill="#050505"/>
<path d="M61.8395 53.5509C61.1072 52.314 61.6179 50.757 61.8579 49.4463C61.8948 49.2555 61.8395 49.0155 61.6487 48.9232C60.2333 48.2463 58.781 47.5078 57.6056 46.4432C56.3564 45.3047 55.4641 43.5324 56.6087 41.9693C58.0425 40.0186 60.061 42.2093 61.1441 43.2924C61.9318 44.0801 62.7564 44.7447 63.6856 45.354C64.7318 46.037 65.7595 46.7263 66.6148 47.637L66.541 47.077C65.8025 48.3386 66.0487 49.6924 66.541 50.9909C66.7933 51.6555 67.0948 52.3016 67.2856 52.9847C67.3964 53.3724 67.5995 54.154 67.2979 54.4986C67.0518 54.7693 66.3748 54.8247 66.0425 54.8924C65.4272 55.0093 64.8056 55.077 64.1841 55.1324C63.2118 55.2186 62.2333 55.274 61.261 55.2863C60.6702 55.2924 60.6641 56.2155 61.261 56.2093C62.3441 56.1909 63.4272 56.1293 64.5041 56.0247C65.581 55.9201 66.8795 55.8832 67.7656 55.2924C68.7687 54.6278 68.2949 52.9909 67.9625 52.0863C67.4395 50.6586 66.4733 49.0216 67.3472 47.5386C67.4518 47.3601 67.4148 47.1263 67.2733 46.9786C65.741 45.3416 63.6364 44.4493 62.0487 42.8801C60.8979 41.7478 59.6979 40.1601 57.8949 40.2832C56.3441 40.3878 55.3533 41.754 55.1872 43.2186C55.021 44.6832 55.7964 45.9878 56.8302 46.9663C58.0795 48.154 59.6425 48.9663 61.1872 49.7047L60.9779 49.1816C60.6887 50.7632 60.1718 52.517 61.0518 54.0001C61.3533 54.5109 62.1533 54.0493 61.8518 53.5324L61.8395 53.5509Z" fill="#060606"/>
<path d="M74.3811 27.5198C79.2427 31.1383 77.7165 42.0429 72.9104 45.1567C69.7227 47.2244 65.7473 47.6921 62.1411 46.5044C60.1719 45.8583 58.1904 44.966 57.495 42.8798C56.8919 41.0829 57.1627 38.4736 58.8304 37.3106C56.6888 37.6121 54.4858 36.166 53.4888 34.3506C50.5104 28.9413 57.0704 20.0675 63.1565 22.7875C64.9104 23.5752 66.3504 25.8152 66.4673 27.6306C67.1996 24.726 72.7811 26.3321 74.375 27.5198H74.3811Z" fill="#FEFEFE"/>
<path d="M74.1472 27.9198C77.8519 30.7567 77.3349 37.0213 75.7042 40.8244C74.6826 43.1998 73.0457 44.8613 70.6272 45.8275C67.4519 47.0952 63.8703 46.9106 60.7749 45.4952C59.2919 44.8183 58.1103 43.7783 57.778 42.1167C57.4703 40.5967 57.7534 38.689 59.0703 37.7044C59.3903 37.4644 59.3472 36.7875 58.8365 36.8429C56.5411 37.1013 54.3257 35.5075 53.5565 33.3721C52.9842 31.7783 53.1811 30.0244 53.7657 28.4613C54.898 25.4398 57.9072 22.3936 61.378 22.7629C63.8026 23.0213 65.7903 25.2121 66.0057 27.6244C66.0488 28.1229 66.7626 28.2767 66.9103 27.7475C67.3226 26.2952 69.1811 26.3506 70.3811 26.5352C71.6672 26.7321 73.0703 27.1444 74.1411 27.9136C74.6211 28.2644 75.0826 27.4583 74.6088 27.1136C72.6026 25.6675 66.9903 24.1044 66.018 27.5013L66.9226 27.6244C66.7072 25.2736 65.0949 22.9721 62.8488 22.166C60.9534 21.489 58.8857 21.8583 57.1872 22.8798C53.8272 24.8983 51.3657 29.4644 52.5719 33.3783C53.378 35.9875 56.0303 38.086 58.8242 37.766C58.7442 37.4767 58.6703 37.1936 58.5903 36.9044C56.1965 38.689 56.1411 42.7198 58.1411 44.8244C59.2734 46.0183 60.9534 46.6521 62.5042 47.0952C64.3011 47.606 66.2026 47.729 68.0488 47.4583C71.1626 47.0029 74.0734 45.489 75.7288 42.7567C77.1626 40.3998 77.8272 37.5321 77.8088 34.7875C77.7842 31.9321 76.9534 28.9167 74.6026 27.1136C74.1288 26.7506 73.6734 27.5567 74.1349 27.9136L74.1472 27.9198Z" fill="#060606"/>
<path d="M72.9221 26.5235C69.919 27.7297 71.8821 34.1112 72.836 36.1297C74.2883 39.1943 75.4883 38.4497 78.4298 37.0528C77.759 35.3728 77.0452 33.6066 76.5406 31.8712C75.9006 29.6681 76.2144 26.942 75.2729 24.9174C74.8483 24.8805 74.7806 25.1081 74.5406 25.4466" fill="#050505"/>
<path d="M72.6887 26.1234C70.3071 27.1449 70.7564 30.5603 71.1933 32.5726C71.4456 33.748 71.8087 34.9111 72.2825 36.0126C72.7194 37.028 73.3656 38.3203 74.5287 38.6403C75.9133 39.0218 77.4702 38.0126 78.6579 37.4464C78.824 37.3664 78.941 37.1018 78.8671 36.9234C78.0425 34.8557 77.0579 32.7203 76.7071 30.5049C76.3994 28.548 76.4794 26.5234 75.661 24.6772C75.5994 24.5357 75.4087 24.4495 75.261 24.4495C74.6825 24.4495 74.4363 24.7572 74.1287 25.2064C73.7902 25.6987 74.5902 26.1603 74.9287 25.6741C75.021 25.5388 75.0764 25.3726 75.261 25.3726L74.861 25.1449C75.661 26.9541 75.5194 29.028 75.8456 30.948C76.2148 33.0895 77.1748 35.1572 77.9748 37.1695L78.184 36.6464C77.2671 37.0834 76.0794 37.8772 75.0148 37.7911C74.0117 37.7111 73.4702 36.4557 73.1256 35.6618C72.2948 33.7788 71.6917 31.5572 71.7779 29.4834C71.821 28.4372 72.1102 27.3541 73.144 26.9111C73.6856 26.6772 73.2179 25.8834 72.6763 26.1111L72.6887 26.1234Z" fill="#060606"/>
<path d="M86.9342 18.6336C96.7619 10.4306 102.38 26.3321 97.4081 33.6244C94.6696 37.6429 90.1219 40.9782 85.0265 40.8675C77.045 40.689 71.7958 32.9475 72.6511 25.4152C73.0696 21.7229 75.0942 17.7782 78.485 15.9752C80.0173 15.1629 81.8573 14.7752 83.5496 15.3352C84.0296 15.4952 87.6788 18.0121 86.9342 18.6275V18.6336Z" fill="#FEFEFE"/>
<path d="M87.2608 18.96C88.9592 17.5631 91.1869 16.3446 93.4454 16.9723C95.2485 17.4769 96.5346 19.0031 97.3592 20.6154C99.2669 24.3323 99.4577 29.5508 97.1684 33.1508C93.6546 38.6831 86.5346 42.3569 80.2392 39.2492C74.8854 36.6031 72.1038 30.0984 73.2854 24.3384C74.03 20.7138 76.3377 16.9477 80.0608 15.8215C81.0946 15.5077 82.4054 15.3477 83.4269 15.7846C83.6485 15.8769 84.1038 16.1969 84.3746 16.3877C84.8792 16.7384 85.3777 17.12 85.8331 17.5384C86.0115 17.7046 86.1962 17.8769 86.35 18.0677C86.5038 18.2584 86.4792 18.4369 86.6085 18.3015C86.1961 18.7261 86.8485 19.3784 87.2608 18.9538C87.9746 18.2215 86.8915 17.2431 86.3746 16.7815C85.63 16.1108 84.7438 15.3661 83.8208 14.9477C82.0792 14.1661 79.8577 14.72 78.2515 15.5692C76.7131 16.3877 75.4454 17.6369 74.4792 19.0708C70.5961 24.8061 71.6361 33.0215 76.5961 37.7846C79.0392 40.1292 82.35 41.4523 85.7408 41.3169C89.4823 41.1631 92.9284 39.2431 95.5254 36.6215C97.5684 34.5661 99.07 32.1908 99.5254 29.2984C99.9192 26.7815 99.6977 24.1292 98.8361 21.7292C98.03 19.4769 96.5777 17.2061 94.27 16.2769C91.5254 15.1692 88.7254 16.5538 86.6085 18.3015C86.1469 18.6769 86.8054 19.3292 87.2608 18.9538V18.96Z" fill="#060606"/>
<path d="M142.911 127.594C132.074 128.523 61.7045 128.197 61.7045 128.197C65.9014 116.745 68.9906 104.88 64.7137 93.5077C61.8153 85.8031 56.0614 82.8062 49.6245 77.7785L45.1322 74.6893C38.923 70.5539 40.2706 64.7939 43.7968 60.5662C45.8953 58.0493 53.9568 52.2154 66.3937 54.4001C63.7291 49.9016 61.0276 42.9601 66.566 38.6093C72.1045 34.2585 80.4306 30.8308 90.9722 37.0154C87.0399 33.0093 84.486 27.9324 93.2491 22.2401C98.9106 18.5662 103.612 18.7631 109.446 21.2924C112.246 22.5108 115.655 24.5416 118.049 26.3693C125.526 32.0801 133.76 39.9939 138.917 47.8954C144.886 57.0401 147.144 66.5047 148.837 77.1877C149.834 83.5016 150.24 88.7877 150.135 95.2001C150.043 101.059 149.194 110.215 147.409 115.729C145.895 120.412 146.055 122.886 143.206 127.452" fill="#FF6700"/>
<path d="M142.91 127.132C138.873 127.477 134.787 127.477 130.738 127.545C124.079 127.662 117.421 127.705 110.763 127.742C103.427 127.779 96.0979 127.791 88.7625 127.791C82.6641 127.791 76.5656 127.785 70.4733 127.766C68.5102 127.766 66.5533 127.754 64.5902 127.748C63.9872 127.748 63.3779 127.748 62.7749 127.742C62.4918 127.742 62.1041 127.668 61.8272 127.742C61.7902 127.748 61.741 127.742 61.7041 127.742L62.1472 128.326C65.2487 119.84 67.9625 110.769 67.0518 101.631C66.6395 97.4832 65.5379 93.2493 63.3533 89.6678C61.5933 86.7755 59.1318 84.4555 56.4795 82.3816C54.1595 80.5662 51.7964 78.7262 49.3656 77.0585C47.6549 75.8832 45.8025 74.7939 44.221 73.4524C41.6672 71.2924 40.6579 68.2278 41.7287 65.0278C42.4672 62.8185 43.9133 60.8308 45.7164 59.3724C51.3779 54.7878 59.2549 53.6555 66.2641 54.8555C66.6456 54.9232 67.0025 54.5478 66.7872 54.1785C64.2887 49.9324 61.9379 43.8032 66.0118 39.7232C67.6979 38.0308 69.981 36.7016 72.1595 35.7416C74.6149 34.6585 77.2795 34.0801 79.9625 34.1293C83.7964 34.1908 87.4456 35.5201 90.7318 37.4339C91.1872 37.6985 91.661 37.0832 91.2918 36.7078C89.0948 34.4616 86.9164 31.4278 88.2025 28.1601C89.0702 25.9508 91.0702 24.2893 92.9779 22.9908C95.2179 21.4647 97.741 20.2401 100.473 19.9755C105.753 19.4585 110.953 22.2278 115.255 25.0032C119.821 27.9447 123.975 31.6924 127.846 35.4893C131.852 39.4155 135.618 43.6616 138.664 48.3816C141.71 53.1016 143.753 57.8216 145.298 62.9662C146.861 68.1785 147.852 73.5632 148.639 78.9478C149.464 84.6032 149.815 90.3078 149.661 96.0185C149.532 100.911 149.089 105.828 148.19 110.64C147.759 112.929 147.076 115.114 146.461 117.354C145.883 119.452 145.47 121.6 144.676 123.631C144.178 124.892 143.532 126.086 142.818 127.243C142.504 127.748 143.304 128.215 143.618 127.711C144.959 125.539 145.901 123.255 146.535 120.794C147.126 118.499 147.839 116.234 148.424 113.939C149.673 109.015 150.196 103.871 150.479 98.8062C150.799 93.0832 150.621 87.3355 149.932 81.6493C149.243 75.9447 148.258 70.2216 146.756 64.677C145.31 59.3355 143.255 54.1601 140.399 49.4093C137.427 44.4555 133.649 40.0062 129.587 35.9139C125.606 31.8955 121.292 27.9632 116.596 24.7816C112.246 21.8339 106.929 18.8985 101.519 18.997C98.9472 19.0462 96.4795 19.8647 94.2579 21.1201C91.981 22.4062 89.6856 24.0678 88.1964 26.2585C87.2302 27.6739 86.7256 29.3539 86.9595 31.0708C87.181 32.6893 87.9872 34.1539 88.9656 35.4401C89.4825 36.117 90.0548 36.757 90.6518 37.3662C90.8364 37.1262 91.0272 36.8801 91.2118 36.6401C85.4764 33.3047 78.8179 32.0924 72.5349 34.6032C70.1472 35.557 67.8272 36.917 65.8825 38.6093C63.7287 40.4739 62.7195 43.1632 62.9102 45.9816C63.1195 49.077 64.4549 52.0124 66.0118 54.6585L66.5349 53.9816C59.8333 52.837 52.6887 53.7108 46.8918 57.4339C42.9102 59.9878 39.2056 64.8924 40.6825 69.8708C41.4702 72.5355 43.5749 74.197 45.7656 75.6985C47.661 77.0032 49.5195 78.3139 51.3595 79.6862C54.2333 81.8339 57.2302 83.877 59.7287 86.4739C62.5718 89.4339 64.3379 93.0339 65.341 96.997C67.9933 107.465 64.8795 118.259 61.2856 128.099C61.181 128.388 61.4518 128.683 61.7287 128.683C64.0856 128.695 66.4425 128.702 68.7995 128.708C74.5841 128.726 80.3625 128.739 86.1472 128.739C93.4272 128.739 100.707 128.739 107.993 128.702C114.867 128.671 121.741 128.628 128.615 128.529C133.095 128.462 137.587 128.437 142.061 128.148C142.356 128.129 142.652 128.111 142.941 128.08C143.526 128.031 143.532 127.108 142.941 127.157L142.91 127.132Z" fill="#050505"/>
<path d="M91.2483 128.166C91.4453 127.311 94.7068 113.951 95.5437 102.166C96.6207 86.997 90.9222 79.797 83.9807 70.2339C81.236 66.4555 77.9868 63.0278 74.4237 60.0185C71.1068 57.2185 66.9345 55.2924 64.3007 51.7847C59.2668 45.0832 65.0022 37.2432 71.5499 34.4616C75.673 32.7078 80.1345 32.9724 84.4114 33.8032C89.4514 34.7755 92.756 38.5355 96.5222 41.6247C100.781 45.1201 104.879 48.8309 108.578 52.917C115.95 61.0709 121.556 70.8309 123.07 81.8462C123.784 87.0709 124.559 92.2709 124.381 97.5693C124.048 107.594 121.039 118.671 118.054 127.446" fill="#FF6700"/>
<path d="M91.6979 128.289C92.8548 123.335 93.8763 118.344 94.6702 113.323C95.8763 105.741 96.9471 97.8337 95.2733 90.246C93.9256 84.1291 90.7071 78.8183 87.1133 73.7722C84.9102 70.6829 82.7009 67.606 80.1225 64.8183C77.4086 61.8891 74.4363 59.286 71.1502 57.0214C68.0671 54.8983 64.4486 52.5599 63.2425 48.7999C62.184 45.4952 63.4517 42.0491 65.5933 39.4706C68.0179 36.5537 71.4333 34.5414 75.1686 33.8829C77.3102 33.5076 79.5194 33.5629 81.6733 33.8214C83.704 34.0675 85.7286 34.4368 87.5748 35.3414C90.9409 36.9906 93.5686 39.7722 96.424 42.1291C99.7963 44.9106 103.064 47.8214 106.116 50.9537C111.704 56.7076 116.547 63.2983 119.593 70.7629C121.101 74.4552 122.129 78.3137 122.676 82.2645C123.31 86.8429 123.962 91.4399 123.956 96.0737C123.944 104.738 121.926 113.397 119.439 121.655C118.867 123.557 118.258 125.446 117.624 127.323C117.433 127.889 118.326 128.129 118.516 127.569C121.304 119.341 123.618 110.855 124.529 102.197C125.009 97.6676 124.922 93.1691 124.424 88.646C123.95 84.3322 123.458 79.9445 122.282 75.7537C120.153 68.1229 116.092 61.1691 111.07 55.0829C108.252 51.6675 105.119 48.5229 101.833 45.5629C100.153 44.0429 98.4179 42.5906 96.6763 41.1445C95.224 39.9383 93.8456 38.6522 92.3809 37.4583C90.9717 36.3075 89.4825 35.2245 87.8271 34.4491C86.0856 33.6306 84.2394 33.2552 82.344 32.9906C78.1963 32.4183 73.9256 32.6399 70.1533 34.6152C64.4548 37.606 59.5194 44.6645 63.2302 51.0029C65.1748 54.3199 68.6209 56.3568 71.6856 58.5106C75.1994 60.9845 78.3379 64.0429 81.1133 67.3168C83.4517 70.0799 85.5563 73.0829 87.6056 76.0676C89.3902 78.6645 91.0517 81.3537 92.3379 84.2337C93.7225 87.3476 94.6086 90.6768 94.984 94.0676C95.4271 98.086 95.1686 102.117 94.7317 106.123C93.9809 113.003 92.7071 119.834 91.1563 126.578C91.0456 127.064 90.9286 127.551 90.8179 128.037C90.6825 128.615 91.5748 128.861 91.7102 128.283L91.6979 128.289Z" fill="#050505"/>
<path d="M72.769 145.581C84.2767 148.148 93.089 135.735 89.5198 125.772C87.6982 120.683 82.1844 117.815 77.0213 117.532C71.409 117.231 65.8459 120.548 63.1875 125.52C62.7567 126.326 62.289 127.071 61.969 127.914C59.0398 135.569 65.2921 143.908 72.7752 145.575L72.769 145.581Z" fill="#050505"/>
<path d="M72.6461 146.025C78.3384 147.249 83.9445 144.923 87.4215 140.314C90.7015 135.963 91.8953 129.803 89.5876 124.732C86.9784 118.997 79.6984 116.209 73.7353 117.292C70.4553 117.889 67.3907 119.625 65.1138 122.055C63.9384 123.311 63.0768 124.739 62.2584 126.24C61.4522 127.717 60.9415 129.286 60.7999 130.966C60.2092 137.994 66.0122 144.492 72.6399 146.025C73.2184 146.16 73.4645 145.268 72.8861 145.132C67.323 143.846 62.4061 138.942 61.7538 133.157C61.3907 129.932 62.6153 127.009 64.4061 124.388C66.1784 121.797 68.8245 119.791 71.7907 118.757C77.2984 116.837 84.4122 118.628 87.8338 123.526C90.8615 127.865 90.2522 133.92 87.6553 138.295C84.603 143.446 78.8368 146.412 72.8861 145.126C72.3076 145.003 72.0615 145.889 72.6399 146.019L72.6461 146.025Z" fill="#060606"/>
<path d="M79.729 128.609C83.6305 134.388 73.3167 139.317 71.0397 132.228C69.3967 127.126 77.0644 124.665 79.729 128.609Z" fill="#FEFEFE"/>
<path d="M79.3292 128.843C80.2892 130.289 80.4554 132.043 79.3292 133.446C78.3323 134.683 76.6892 135.378 75.1077 135.255C73.2184 135.108 71.8954 133.624 71.4215 131.864C70.9107 129.969 71.9631 128.289 73.7107 127.544C75.6184 126.732 78.1046 127.052 79.3415 128.843C79.6738 129.329 80.48 128.868 80.1415 128.375C78.8123 126.455 76.3692 125.821 74.1723 126.418C71.9754 127.015 70.2584 128.732 70.3692 131.034C70.4738 133.268 72.0061 135.483 74.2154 136.043C76.0923 136.517 78.1723 135.883 79.5631 134.566C80.3261 133.846 80.8738 132.898 81.0277 131.858C81.2123 130.621 80.8246 129.409 80.1415 128.381C79.8154 127.889 79.0154 128.351 79.3415 128.849L79.3292 128.843Z" fill="#050505"/>
<path d="M128.092 145.581C139.6 148.148 148.412 135.735 144.843 125.772C143.021 120.683 137.508 117.815 132.345 117.532C126.732 117.231 121.169 120.548 118.511 125.52C118.08 126.326 117.612 127.071 117.292 127.914C114.363 135.569 120.615 143.908 128.098 145.575L128.092 145.581Z" fill="#050505"/>
<path d="M127.969 146.025C133.662 147.249 139.268 144.923 142.745 140.314C146.025 135.963 147.219 129.803 144.911 124.732C142.302 118.997 135.022 116.209 129.059 117.292C125.779 117.889 122.714 119.625 120.437 122.055C119.262 123.311 118.4 124.739 117.582 126.24C116.775 127.717 116.265 129.286 116.123 130.966C115.532 137.994 121.335 144.492 127.963 146.025C128.542 146.16 128.788 145.268 128.209 145.132C122.646 143.846 117.729 138.942 117.077 133.157C116.714 129.932 117.939 127.009 119.729 124.388C121.502 121.797 124.148 119.791 127.114 118.757C132.622 116.837 139.735 118.628 143.157 123.526C146.185 127.865 145.575 133.92 142.979 138.295C139.926 143.446 134.16 146.412 128.209 145.126C127.631 145.003 127.385 145.889 127.963 146.019L127.969 146.025Z" fill="#060606"/>
<path d="M135.348 128.419C139.539 134.622 128.462 139.92 126.012 132.302C124.246 126.819 132.486 124.179 135.348 128.419Z" fill="#FEFEFE"/>
<path d="M134.954 128.652C135.994 130.215 136.166 132.117 134.942 133.637C133.865 134.972 132.086 135.723 130.382 135.594C128.332 135.434 126.899 133.834 126.388 131.926C125.834 129.877 126.979 128.049 128.868 127.243C130.929 126.363 133.619 126.714 134.954 128.652C135.286 129.138 136.092 128.677 135.754 128.184C134.339 126.135 131.729 125.464 129.379 126.098C127.132 126.701 125.206 128.566 125.317 131.021C125.428 133.403 127.065 135.766 129.422 136.369C131.422 136.88 133.643 136.197 135.132 134.794C135.945 134.024 136.536 133.009 136.702 131.901C136.899 130.578 136.486 129.292 135.754 128.191C135.428 127.698 134.628 128.16 134.954 128.658V128.652Z" fill="#050505"/>
<path d="M13.4099 35.3355C8.64067 33.6617 12.2776 27.1694 15.4591 25.8586C18.5976 24.5663 23.773 26.0125 21.853 30.2586C22.173 25.2309 31.4345 24.314 33.0099 29.3109C34.3268 33.4832 27.2068 42.5786 22.653 39.2679C25.0899 42.7756 22.7576 47.2125 18.6837 47.9448C10.1114 49.4832 6.78221 35.3417 16.1361 34.6894" fill="#FEFEFE"/>
<path d="M13.5324 34.8925C9.56317 33.4156 12.4924 28.3017 14.837 26.7202C17.3847 25.0032 23.2124 25.9386 21.4462 30.0248L22.3078 30.2586C22.6339 26.2586 28.6524 25.4832 31.2801 27.5879C34.7632 30.3756 31.1262 35.6556 28.6709 37.7725C27.077 39.1448 24.8124 40.2217 22.8801 38.8679C22.5047 38.6032 22.0001 39.1263 22.2463 39.5017C23.8401 41.8832 23.2186 44.954 20.8493 46.5725C19.077 47.7848 16.6093 47.9509 14.7016 46.954C11.7539 45.4217 10.1232 41.3971 11.3662 38.2709C12.1601 36.2832 14.0739 35.3048 16.1232 35.1448C16.7139 35.0956 16.7139 34.1725 16.1232 34.2217C13.9693 34.394 11.9016 35.3048 10.8247 37.2679C9.87702 39.0032 9.84625 41.1325 10.4247 42.9909C11.0032 44.8494 12.2647 46.6279 14.0062 47.6248C16.1232 48.8371 18.8801 48.8063 20.9847 47.5694C23.9939 45.7971 25.0032 41.9571 23.0463 39.0279C22.837 39.2371 22.6278 39.4463 22.4124 39.6617C24.3324 41.0032 26.6709 40.3694 28.4555 39.1017C30.4986 37.6494 32.1232 35.5017 33.0401 33.1756C33.8339 31.1571 33.9139 28.9109 32.3016 27.2679C30.6893 25.6248 28.2832 25.2863 26.1663 25.6679C23.7786 26.0986 21.5939 27.6986 21.3847 30.2586C21.3478 30.7017 22.0616 30.9109 22.2463 30.4925C22.8986 28.9725 22.9416 27.274 21.5939 26.1232C20.357 25.0709 18.5539 24.8063 16.9909 24.9971C13.7662 25.3971 11.0216 28.5479 10.6832 31.7417C10.4739 33.6679 11.5139 35.1202 13.2862 35.7786C13.8462 35.9879 14.0862 35.0956 13.5324 34.8863V34.8925Z" fill="#060606"/>
<path d="M48.5532 130.788C45.2917 130.788 42.0301 130.923 38.7747 131.034C38.184 131.052 38.1778 131.976 38.7747 131.957C42.0301 131.846 45.2917 131.717 48.5532 131.711C49.1501 131.711 49.1501 130.788 48.5532 130.788Z" fill="#060606"/>
<path d="M66.6639 135.545C60.0855 135.711 53.507 136.018 46.9285 135.834C46.3316 135.815 46.3378 136.738 46.9285 136.757C53.5132 136.942 60.0855 136.634 66.6639 136.468C67.2547 136.455 67.2608 135.532 66.6639 135.545Z" fill="#060606"/>
<path d="M22.2583 28.7691C22.4799 25.6861 18.1968 24.7322 15.4583 25.8584C12.2768 27.1691 8.63986 33.6614 13.4091 35.3353L13.7045 35.2676C7.5137 38.0245 10.9722 49.3291 18.6829 47.9445C22.7568 47.2122 25.0891 42.7814 22.6522 39.2676C27.206 42.5784 34.326 33.483 33.0091 29.3107C31.5999 24.8553 24.0983 25.1014 22.2583 28.7691Z" fill="#FEFEFE"/>
<path d="M22.7195 28.7692C22.8856 25.0399 17.9379 24.3261 15.2795 25.4338C12.701 26.5107 10.3441 29.9076 10.6825 32.7568C10.8487 34.1415 12.2456 36.0922 13.8272 35.7107L13.4702 34.8676C9.71639 36.5968 9.31639 41.3168 11.1318 44.6276C12.0672 46.3261 13.5995 47.7045 15.4825 48.2522C17.7533 48.9169 20.3441 48.3568 22.0979 46.763C24.3072 44.7568 24.7133 41.5138 23.0579 39.0338L22.4241 39.6676C26.3995 42.4492 30.9902 37.4276 32.6087 34.1722C33.4764 32.4307 34.0733 30.3322 33.1748 28.4861C32.221 26.5292 30.0302 25.6122 27.9564 25.5384C25.6364 25.4522 22.9964 26.3753 21.8579 28.5353C21.581 29.0584 22.3748 29.5261 22.6579 29.003C24.3256 25.8338 30.1225 25.4707 32.1164 28.4861C33.1195 30.0061 32.6702 31.8645 31.9564 33.4153C31.1256 35.2122 29.8641 36.8738 28.301 38.0922C26.7441 39.3045 24.6702 40.1168 22.8979 38.8738C22.5225 38.6092 22.0179 39.1322 22.2641 39.5076C23.5933 41.4953 23.4456 44.0184 21.7902 45.7845C20.3256 47.3415 18.0118 47.9507 15.9502 47.4276C12.6949 46.603 10.6764 43.0338 11.021 39.7968C11.2179 37.9568 12.2641 36.443 13.9441 35.6676C14.4364 35.4399 14.0795 34.7076 13.5872 34.8245C13.0087 34.9599 12.1472 34.0922 11.8764 33.5815C11.5564 32.9661 11.5195 32.2461 11.6364 31.5753C11.9072 30.0061 12.8487 28.523 13.9872 27.4338C15.2056 26.2645 16.7441 25.7599 18.4302 25.8953C20.1164 26.0307 21.8825 26.8861 21.7964 28.7815C21.7718 29.3784 22.6948 29.3722 22.7195 28.7815V28.7692Z" fill="#060606"/>
<path d="M139.089 62.726C140.51 66.0552 140.873 69.7414 142.381 73.0399C143.532 75.5568 145.772 77.5199 148.664 76.5845C149.23 76.3999 148.984 75.5137 148.418 75.6922C145.403 76.6645 143.636 73.9506 142.732 71.4706C141.63 68.4429 141.15 65.2306 139.883 62.2583C139.649 61.7106 138.855 62.1845 139.083 62.726H139.089Z" fill="#050505"/>
<path d="M122.763 41.3233C123.114 41.3233 123.428 41.2556 123.772 41.2064C124.326 41.1325 124.892 41.1695 125.452 41.1141C126.012 41.0587 126.566 41.1141 127.12 41.0895C127.674 41.0648 128.222 40.9418 128.775 40.9418C129.895 40.9479 131.003 40.8618 132.117 40.7941C132.48 40.7695 133.459 40.7325 133.459 40.7325L134.191 41.2864C134.831 41.871 135.465 42.3818 136.172 42.8925C137.126 43.5818 138.172 44.1541 139.065 44.9233C139.612 45.391 140.105 45.9202 140.652 46.3879C141.465 47.0771 142.382 47.6064 143.139 48.3633C144.16 49.3787 145.102 50.6218 145.846 51.8587C146.228 52.4864 146.234 53.1879 146.043 53.871C145.735 54.9725 144.899 55.9879 144.142 56.8248C143.477 57.5633 142.806 58.4064 141.994 58.9848" fill="#FF6700"/>
<path d="M132.855 40.6956C132.652 40.6279 133.428 41.2802 133.477 41.3233C133.778 41.5818 134.098 41.8279 134.406 42.0925C135.286 42.8433 136.221 43.5018 137.188 44.1295C138.271 44.8433 139.163 45.6802 140.129 46.5418C140.991 47.3048 142 47.8894 142.818 48.6956C143.711 49.5756 144.486 50.5848 145.163 51.631C145.625 52.351 145.84 53.0279 145.563 53.8648C145.335 54.5541 144.923 55.1756 144.474 55.7418C143.674 56.7387 142.794 57.8156 141.772 58.5848C141.305 58.9356 141.766 59.7418 142.24 59.3848C143.218 58.6464 144.012 57.7048 144.806 56.7879C145.563 55.9079 146.32 54.9048 146.56 53.7418C146.831 52.4495 146.221 51.5018 145.501 50.4802C144.745 49.4094 143.901 48.3448 142.88 47.5141C141.858 46.6833 140.788 45.8833 139.803 44.9664C138.818 44.0495 137.717 43.4095 136.64 42.6587C135.717 42.0187 134.905 41.2495 134.012 40.5725C133.465 40.1602 133.083 40.191 132.412 40.2279" fill="#050505"/>
<path d="M126.141 39.0337C127.328 39.0337 127.328 37.1875 126.141 37.1875C124.953 37.1875 124.953 39.0337 126.141 39.0337Z" fill="black"/>
</svg>
